<svg width="318" height="253" viewBox="0 0 318 253" fill="none" xmlns="http://www.w3.org/2000/svg">
<path d="M148.604 179.138C148.621 179.131 148.642 179.125 148.66 179.118C148.619 179.112 148.578 179.105 148.537 179.1L148.604 179.138Z" fill="#020202"/>
<path d="M78.5723 123.212C78.5622 123.174 78.5538 123.135 78.5433 123.098L78.4329 123.04L78.5421 123.18C78.552 123.191 78.5624 123.201 78.5723 123.212Z" fill="#020202"/>
<path d="M138 120.583C137.301 122.086 136.76 123.283 136.233 124.767C135.573 126.61 135.194 127.921 135.194 129.187C135.167 129.701 135.247 130.215 135.431 130.697C135.614 131.178 135.895 131.615 136.258 131.981C136.527 132.246 136.847 132.454 137.197 132.593C137.548 132.733 137.923 132.801 138.3 132.794C140.201 132.701 141.008 131.745 141.008 129.591C141.008 128.27 140.117 125.811 138 120.583ZM138 120.583C137.301 122.086 136.76 123.283 136.233 124.767C135.573 126.61 135.194 127.921 135.194 129.187C135.167 129.701 135.247 130.215 135.431 130.697C135.614 131.178 135.895 131.615 136.258 131.981C136.527 132.246 136.847 132.454 137.197 132.593C137.548 132.733 137.923 132.801 138.3 132.794C140.201 132.701 141.008 131.745 141.008 129.591C141.008 128.27 140.117 125.811 138 120.583ZM138 120.583C137.301 122.086 136.76 123.283 136.233 124.767C135.573 126.61 135.194 127.921 135.194 129.187C135.167 129.701 135.247 130.215 135.431 130.697C135.614 131.178 135.895 131.615 136.258 131.981C136.527 132.246 136.847 132.454 137.197 132.593C137.548 132.733 137.923 132.801 138.3 132.794C140.201 132.701 141.008 131.745 141.008 129.591C141.008 128.27 140.117 125.811 138 120.583ZM187.551 72.9161C181.715 72.9086 175.974 74.3946 170.873 77.2328V116.547L188.811 72.9259C188.398 72.9161 187.969 72.9161 187.551 72.9161ZM153.068 107.44C153.076 112.144 154.043 116.797 155.91 121.113C157.778 125.43 160.506 129.319 163.928 132.543C164.479 131.952 164.981 130.892 165.616 129.335V129.33L165.847 128.768V80.633C161.855 83.8647 158.636 87.9493 156.425 92.5878C154.213 97.2262 153.067 102.301 153.068 107.44ZM138 120.583C137.301 122.086 136.76 123.283 136.233 124.767C135.573 126.61 135.194 127.921 135.194 129.187C135.167 129.701 135.248 130.216 135.431 130.697C135.614 131.178 135.895 131.615 136.258 131.981C136.527 132.246 136.847 132.454 137.197 132.593C137.548 132.733 137.923 132.801 138.3 132.794C140.201 132.701 141.008 131.745 141.008 129.591C141.008 128.27 140.117 125.811 138 120.583L138 120.583ZM138 120.583C137.301 122.086 136.76 123.283 136.233 124.767C135.573 126.61 135.194 127.921 135.194 129.187C135.167 129.701 135.248 130.216 135.431 130.697C135.614 131.178 135.895 131.615 136.258 131.981C136.527 132.246 136.847 132.454 137.197 132.593C137.548 132.733 137.923 132.801 138.3 132.794C140.201 132.701 141.008 131.745 141.008 129.591C141.008 128.27 140.117 125.811 138 120.583L138 120.583ZM153.068 107.44C153.076 112.144 154.043 116.797 155.91 121.113C157.778 125.43 160.506 129.319 163.928 132.543C164.479 131.952 164.981 130.892 165.616 129.335V129.33L165.847 128.768V80.633C161.855 83.8647 158.636 87.9493 156.425 92.5878C154.213 97.2262 153.067 102.301 153.068 107.44ZM187.551 72.9161C181.715 72.9086 175.974 74.3946 170.873 77.2328V116.547L188.811 72.9259C188.398 72.9161 187.969 72.9161 187.551 72.9161ZM200.778 48.0995L191.189 71.4525C200.757 72.4015 209.568 77.0775 215.723 84.4718L200.778 48.0995ZM138 120.583C137.301 122.086 136.76 123.283 136.233 124.767C135.573 126.61 135.194 127.921 135.194 129.187C135.167 129.701 135.247 130.216 135.431 130.697C135.614 131.178 135.895 131.615 136.258 131.981C136.527 132.246 136.847 132.454 137.197 132.593C137.548 132.733 137.923 132.801 138.3 132.794C140.201 132.701 141.008 131.745 141.008 129.591C141.008 128.27 140.117 125.811 138 120.583V120.583ZM153.068 107.44C153.076 112.144 154.043 116.797 155.91 121.113C157.778 125.43 160.506 129.319 163.927 132.543C164.479 131.952 164.981 130.892 165.616 129.335V129.33L165.847 128.768V80.633C161.855 83.8647 158.636 87.9493 156.425 92.5878C154.213 97.2262 153.067 102.301 153.068 107.44H153.068ZM187.551 72.9161C181.715 72.9086 175.974 74.3946 170.873 77.2328V116.547L188.811 72.9259C188.398 72.9161 187.969 72.9161 187.551 72.9161ZM200.778 48.0995L191.189 71.4525C200.757 72.4015 209.568 77.0775 215.723 84.4718L200.778 48.0995ZM138 120.583C137.301 122.086 136.76 123.283 136.233 124.767C135.573 126.61 135.194 127.921 135.194 129.187C135.167 129.701 135.247 130.216 135.431 130.697C135.614 131.178 135.895 131.615 136.258 131.981C136.527 132.246 136.847 132.454 137.197 132.593C137.548 132.733 137.923 132.801 138.3 132.794C140.201 132.701 141.008 131.745 141.008 129.591C141.008 128.27 140.117 125.811 138 120.583V120.583ZM153.068 107.44C153.076 112.144 154.043 116.797 155.91 121.113C157.778 125.43 160.506 129.319 163.927 132.543C164.479 131.952 164.981 130.892 165.616 129.335V129.33L165.847 128.768V80.633C161.855 83.8647 158.636 87.9493 156.425 92.5878C154.213 97.2262 153.067 102.301 153.068 107.44H153.068ZM187.551 72.9161C181.715 72.9086 175.974 74.3946 170.873 77.2328V116.547L188.811 72.9259C188.398 72.9161 187.969 72.9161 187.551 72.9161ZM200.778 48.0995L191.189 71.4525C200.757 72.4015 209.568 77.0775 215.723 84.4718L200.778 48.0995ZM233.026 125.437C232.992 125.688 232.947 125.94 232.913 126.186L233.248 126.999C233.364 126.929 233.47 126.842 233.563 126.743L233.026 125.437ZM236.521 121.8C236.427 121.515 236.31 121.238 236.172 120.972L236.536 121.859L236.521 121.8ZM243.014 85.7629C242.684 85.8664 242.492 86.2261 242.463 87.0294C242.448 87.4187 242.374 87.7882 242.305 88.3697C242.033 87.3466 241.856 86.3009 241.773 85.2455C241.665 84.2254 241.577 83.2201 241.503 82.2198C241.439 81.4461 241.522 80.6528 241.493 79.8692C241.966 79.8101 242.433 80.1008 242.551 81.4166C242.601 81.9241 242.566 82.4514 242.635 82.9442C242.66 83.1462 242.916 83.4863 242.955 83.4271C243.096 83.1926 243.166 82.9221 243.157 82.6485L242.955 80.5986C242.852 79.9185 242.733 79.2434 242.596 78.5831C242.349 77.3856 241.872 77.1146 241.36 77.1786C240.976 75.853 240.459 74.5472 240.06 73.3842C240.179 72.167 240.513 71.8369 240.932 71.5855C241.291 71.3736 241.375 70.6197 241.148 69.6538C240.961 68.8358 240.73 68.0276 240.577 67.456C239.888 66.6577 239.612 67.9734 239.061 66.7957C238.392 65.3715 239.125 65.406 239.258 64.7703C239.406 63.8583 239.468 62.9344 239.445 62.0107C239.46 62.0284 239.477 62.0449 239.494 62.06C239.48 62.0107 239.465 61.9615 239.445 61.9122L239.435 62.0009C238.126 59.0048 238.141 58.9851 236.186 57.5806C236.225 56.933 236.205 56.2832 236.127 55.6391C235.91 54.6865 235.624 53.751 235.271 52.84C235.208 52.6773 235.134 52.5193 235.049 52.367C234.72 51.7706 234.459 51.1392 234.271 50.4845C234.095 49.928 234.002 49.3485 233.996 48.7647C233.984 48.3995 233.892 48.0414 233.726 47.716C233.56 47.3905 233.324 47.1059 233.036 46.8823C233.218 47.9763 233.267 48.8731 232.608 48.947C232.397 48.9926 232.196 49.0725 232.012 49.1836C231.347 47.5229 230.594 45.9115 229.777 44.3001C229.353 43.5499 229.091 42.7188 229.009 41.8608C228.851 41.265 228.569 40.7092 228.182 40.2297C227.607 39.5185 226.977 38.8544 226.297 38.2438L226.277 38.1846L225.775 36.0016C225.76 35.9917 225.745 35.9868 225.731 35.9769C224.903 34.3019 223.794 32.7818 222.452 31.4828C221.588 31.4 220.748 31.1471 219.981 30.7387C219.346 30.3494 218.75 29.689 217.613 28.5704L215.634 26.5894L213.567 24.7021L212.528 23.7658L211.45 22.8738L209.289 21.0949C206.344 18.8023 203.258 16.6973 200.049 14.7922C199.316 14.3432 198.547 13.9543 197.751 13.6292C197.549 13.5405 197.337 13.6341 197.13 13.6489C198.284 14.9829 199.718 16.0448 201.329 16.7584C202.532 17.3774 203.702 18.0583 204.834 18.7985C205.712 19.3435 206.521 19.9939 207.241 20.7351C207.889 21.3765 208.434 22.1146 208.856 22.9231C207.779 22.1958 206.665 21.5247 205.518 20.9125C204.017 20.1771 202.608 19.2674 201.319 18.2022C199.604 16.8883 197.76 15.7508 195.816 14.807C194.497 14.0481 193.128 13.373 191.775 12.6831C189.237 11.3654 186.602 10.2435 183.894 9.3272C181.176 8.41555 178.405 7.76015 175.609 7.03576C173.979 6.60703 172.36 6.30644 170.721 5.86786C168.747 5.50487 166.753 5.26459 164.749 5.14839L162.475 4.902L160.191 4.7591C158.675 4.6531 157.152 4.66793 155.638 4.80345C155.027 4.86258 154.333 4.70489 153.678 4.71474C151.734 4.69011 151.015 3.95586 149.873 3.46307C145.674 3.75382 145.418 3.80802 145.157 4.13819C145.881 4.39936 147.53 4.1579 147.712 4.94635C146.093 5.10207 144.463 5.12843 142.839 5.0252L142.913 5.04984C141.886 4.84764 140.83 4.84262 139.802 5.03505C138.733 5.19688 137.677 5.43233 136.641 5.73973C134.722 6.31629 132.826 6.86328 130.916 7.49897C130.176 7.75939 129.46 8.08251 128.775 8.46483C128.007 8.90959 127.096 9.03688 126.235 8.81963C126.993 8.34163 127.722 7.87842 128.445 7.42013C128.024 7.39951 127.601 7.43766 127.19 7.53347C126.082 7.94741 125.029 8.47469 123.941 8.89355C122.355 9.45183 120.835 10.1822 119.407 11.0717C118.374 11.796 117.084 12.3677 115.957 13.0773C115.277 13.5208 114.515 13.8225 113.717 13.9643C113.343 14.0284 113.067 13.9101 112.59 14.3585C111.312 15.5828 109.95 16.7157 108.514 17.7489C107.086 18.8774 105.56 19.9221 104.211 21.1195C103.197 21.9622 102.159 22.8246 101.115 23.6919C100.071 24.5542 98.9836 25.3624 97.9646 26.1903C97.1031 26.8802 96.2367 27.5257 95.4589 28.255C94.6737 28.9923 93.9417 29.7844 93.2684 30.6253C92.7909 31.2216 92.1805 31.8228 91.6193 32.419C92.018 32.5965 92.4168 32.7837 92.9336 33.0202C91.0482 34.3705 89.4829 36.0016 87.7747 37.2434C87.5475 37.4236 87.3649 37.6539 87.2411 37.9162C87.1173 38.1786 87.0556 38.4661 87.0609 38.7562C87.0954 39.0322 87.1545 39.2786 87.2037 39.5348C86.9319 39.9844 86.6309 40.4157 86.3028 40.8259C85.378 41.8798 84.5244 42.9943 83.748 44.1621C82.9982 45.3488 82.3113 46.5743 81.6903 47.8333C81.2079 48.8731 80.6468 49.9079 80.1151 50.9379C79.4407 52.2585 78.85 53.6285 78.2199 54.9688C77.6341 56.3338 77.1074 57.7186 76.6151 59.0984C74.9611 64.0607 74.016 69.1117 72.9478 74.2416C72.8782 74.8132 72.8848 75.3916 72.9675 75.9614C73.1329 75.5609 73.2438 75.1399 73.2973 74.7098C73.3711 74.2416 73.4449 73.7685 73.5188 73.2905C73.8388 71.5313 74.0898 71.2307 75.2909 71.004C75.0546 72.0241 74.8085 73.0343 74.6264 74.0445C74.4442 74.9808 74.4541 75.9368 74.3507 76.8829C74.2474 77.9375 73.8486 79.1399 74.4049 79.9086C74.7888 78.4648 75.4928 77.154 75.1777 75.5229C75.1541 75.2276 75.2102 74.9315 75.3402 74.6654C76.0392 73.6059 76.241 72.2113 76.748 70.4817C76.7973 71.8861 76.9548 72.9357 77.0434 73.9607L77.0286 73.9558C76.684 74.8132 76.3788 75.6066 76.876 76.2768C77.4225 77.0308 77.4225 77.1786 76.7825 78.041C76.4395 78.4476 76.2132 78.9398 76.1278 79.4651L75.6404 83.1265C75.4878 84.6887 74.6854 85.211 74.2867 86.4232C73.9108 87.6257 73.979 88.9233 74.4787 90.0797C74.6067 89.4982 74.6608 88.6999 74.8627 88.4535C75.2712 87.9558 75.665 87.3694 76.0884 86.8618C76.4841 86.3601 76.996 85.9626 77.5799 85.7038C77.5751 86.6006 77.6094 87.3152 77.6587 88.0346L77.6242 87.9509V88.0248C77.4241 87.9676 77.2169 87.9394 77.0089 87.941C76.7382 87.9706 76.5412 88.4486 76.6594 88.7442C76.743 88.9463 76.8809 89.173 76.999 89.168C77.2145 89.1248 77.42 89.0412 77.6045 88.9216V88.9906L77.639 88.9019C77.8817 90.2977 78.0248 91.709 78.0673 93.1251V93.1842C78.0771 93.6622 78.0771 94.1402 78.0525 94.633C78.0574 95.5102 78.1115 96.4169 78.1903 97.3039C78.5595 100.734 78.9828 104.104 79.2092 107.529C79.7015 108.465 80.1692 109.372 80.7008 110.244C81.3013 112.427 81.9807 114.596 82.783 116.754C83.1227 117.666 83.4919 118.553 83.8611 119.44C83.8415 119.4 83.8218 119.366 83.8021 119.326C83.3745 118.41 82.6839 117.641 81.8182 117.119C81.6853 117.809 82.0595 118.528 82.3401 119.193L83.0834 120.864L83.9005 122.49C84.0039 122.702 84.0433 123.145 83.9646 123.21C83.8819 123.292 83.7725 123.342 83.6561 123.351C83.5397 123.36 83.4239 123.328 83.3295 123.259C82.921 122.883 82.5797 122.439 82.3204 121.948C81.9336 121.112 81.5999 120.253 81.3211 119.376C81.0701 118.705 80.76 118.513 80.184 118.735C80.7748 120.169 81.3063 121.638 82.0005 123.032L82.9555 125.053C83.2803 125.718 83.6544 126.363 83.999 127.024L85.0623 128.985L86.2044 130.902C86.6572 131.685 86.9871 132.543 87.4154 133.341C87.4547 133.42 87.4006 133.568 87.3365 133.583C87.2794 133.582 87.2232 133.568 87.1721 133.542C87.121 133.517 87.0763 133.48 87.0412 133.435C86.6031 132.804 86.2142 132.144 85.8352 131.469C84.5405 129.305 83.3739 127.122 81.7839 125.506C81.1882 125.6 80.7206 125.851 79.9379 124.737C79.5157 124.2 79.0603 123.69 78.5743 123.21C78.72 123.931 78.9241 124.64 79.1847 125.329C81.1234 129.671 83.3911 133.859 85.9681 137.855C88.5896 141.86 91.622 145.579 95.0158 148.953C96.0496 150.012 97.1768 151.027 98.1712 152.087C100.202 154.257 102.517 156.142 105.053 157.69C107.081 158.902 108.725 160.449 110.419 161.849C111.029 162.366 111.585 163.1 111.369 163.564C110.355 163.549 108.632 161.795 107.869 162.672C109.498 163.652 111.064 164.677 112.732 165.515C118.605 168.626 124.818 171.046 131.246 172.729L134.451 173.582C135.529 173.848 136.607 174.109 137.675 174.375C138.576 174.612 139.615 174.799 140.127 175.282C139.94 175.489 139.772 175.666 139.61 175.849L142.066 176.282L144.626 176.617C145.113 176.677 145.271 176.785 145.093 176.967C144.395 177.16 143.011 176.953 143.041 177.569L146.112 178.071C147.141 178.199 148.17 178.327 149.199 178.456C149.288 178.465 149.396 178.736 149.297 178.84C149.102 178.969 148.886 179.063 148.657 179.116C149.467 179.27 150.286 179.37 151.109 179.416C153.231 179.456 155.357 179.377 157.474 179.298C161.026 179.234 164.572 178.982 168.097 178.544C169.126 178.396 170.15 178.18 171.139 177.997C171.089 177.598 171.121 177.192 171.233 176.805C171.561 176.556 171.95 176.399 172.36 176.351C172.898 176.4 173.432 176.482 173.96 176.598C174.929 176.711 175.353 176.524 176.003 175.73C176.905 175.181 177.939 174.885 178.995 174.873C179.063 174.798 179.141 174.733 179.227 174.681C181.028 173.763 182.946 173.097 184.927 172.7C185.248 172.674 185.569 172.746 185.848 172.907C186.739 173.271 186.763 173.276 188.122 172.232L188.132 172.237C188.142 172.226 188.15 172.215 188.156 172.202C188.17 172.191 188.185 172.181 188.201 172.173H188.181C188.668 171.488 189.161 170.832 189.623 170.132C190.588 169.615 191.287 169.112 191.016 168.6C190.809 168.305 190.696 167.955 190.692 167.595C190.706 167.432 191.277 167.057 191.656 166.826C191.91 166.689 192.195 166.621 192.483 166.629C193.497 167.018 194.467 167.393 195.452 167.772C196.054 167.244 196.729 166.804 197.455 166.466C198.509 165.894 199.557 165.298 200.596 164.687C201.644 164.091 202.624 163.386 203.638 162.731C203.996 162.427 204.326 162.09 204.623 161.726C202.919 162.381 201.507 162.962 200.01 163.48C199.768 163.4 199.534 163.298 199.311 163.174C199.193 163.095 199.055 162.893 199.158 162.805C199.499 162.477 199.881 162.197 200.296 161.972C200.767 161.784 201.27 161.689 201.777 161.691C202.788 161.723 203.778 161.403 204.578 160.784C204.95 160.482 205.374 160.252 205.829 160.104C206.74 159.947 207.605 159.587 208.359 159.05C209.155 158.468 209.996 157.951 210.874 157.502C211.303 157.277 211.676 156.959 211.967 156.571C212.863 155.103 214.202 154.664 215.369 153.811C215.584 153.16 215.938 152.564 216.405 152.062C216.872 151.56 217.442 151.165 218.076 150.904C218.298 150.161 218.723 149.493 219.302 148.977C219.947 148.302 220.66 147.696 221.384 146.898C221.128 146.912 221.039 146.863 220.936 146.932C219.422 147.9 218.067 149.097 216.919 150.48C215.679 151.903 214.358 153.252 212.961 154.521C212.605 154.88 212.21 155.199 211.785 155.472C211.002 155.935 210.16 156.31 209.314 156.729C208.452 157.133 207.581 157.586 206.572 158.005C207.837 156.906 208.713 156.029 209.624 155.196C209.746 155.085 209.878 154.984 210.018 154.896C210.692 154.457 211.347 153.994 212.016 153.54C212.12 153.017 212.411 152.55 212.833 152.225C216.388 148.919 219.676 145.339 222.669 141.516C224.648 139.028 225.322 137.959 225.273 137.609C225.209 137.244 224.338 137.535 222.969 137.515C223.019 137.258 223.086 137.004 223.171 136.756C223.555 135.776 223.25 135.726 222.649 136.051C222.398 135.672 221.561 136.111 221.694 135.086C222.044 134.558 222.428 134.016 222.797 133.45C223.151 132.868 223.516 132.277 223.885 131.68C224.426 131.695 224.899 131.715 225.376 131.73C225.804 131.222 226.195 130.685 226.548 130.123C227.143 129.138 227.124 128.675 226.479 128.137C226.922 127.147 227.37 126.151 227.857 125.171C228.354 124.195 228.861 123.219 229.285 122.204C229.418 121.894 229.772 121.677 230.038 121.416C229.91 122.099 229.714 122.768 229.452 123.412C228.832 124.481 228.514 125.699 228.532 126.935C229.142 125.851 229.752 124.762 230.353 123.697C230.53 123.377 230.944 123.027 231.111 123.057C231.259 123.086 231.333 123.752 231.244 123.914C230.451 125.314 230.363 126.625 229.693 128.187C229.02 128.843 228.4 129.552 227.838 130.306C227.537 130.71 227.242 131.153 226.951 131.631C226.646 132.094 226.346 132.602 226.051 133.149C226.051 133.716 226.031 134.42 226.041 135.096C226.051 135.554 226.572 135.49 226.947 135.056C227.97 133.873 228.758 132.267 229.826 131.232L229.792 131.474L229.9 131.158L229.826 131.207C230.702 129.305 231.726 127.507 232.701 125.673L229.511 117.917C229.285 118.262 229.039 118.617 228.763 118.986C228.955 118.41 229.127 117.878 229.29 117.385L219.208 92.8836C216.586 87.3503 212.559 82.6028 207.53 79.1153C202.501 75.6278 196.645 73.5225 190.549 73.0097L170.873 120.82V129.295C170.873 133.08 171.114 133.346 174.59 133.346H174.979V134.711H160.236V133.346H160.624C161.191 133.36 161.758 133.342 162.323 133.292C158.599 129.651 155.706 125.247 153.841 120.383C151.976 115.518 151.184 110.307 151.519 105.107C151.853 99.9071 153.307 94.8412 155.78 90.2562C158.253 85.6713 161.688 81.6758 165.847 78.5436V51.3764L141.259 115.552L141.426 116.035C144.065 123.712 144.862 126.028 144.641 129.359C144.514 130.797 143.863 132.138 142.811 133.125C141.76 134.112 140.382 134.677 138.94 134.711C135.942 134.711 133.85 132.681 133.609 129.547C133.398 126.974 135.16 122.894 137.163 118.577L136.238 116.237L111.561 53.5299V128.487C111.674 133.233 111.778 133.233 114.436 133.233H115.666V134.711H105.767V133.233H107.367C109.907 133.233 109.907 133.233 109.907 128.487V49.3511L109.164 47.518C107.879 44.3494 107.692 44.3494 104.546 44.3494H104.152V42.8365H116.764V44.3494H116.011C115.307 44.3494 114.347 44.3888 114.111 44.7239C113.82 45.1329 114.224 46.2811 114.83 48.0206L115.095 48.7844L140.402 113.329L164.917 49.0259C165.636 47.0695 165.744 45.7045 165.227 44.9653C164.878 44.4578 164.179 44.2015 163.16 44.2015H161.707V42.8365H174.979V44.2015H174.59C171.385 44.2015 170.873 44.4775 170.873 48.2522V75.3553C176.019 72.6565 181.742 71.2494 187.551 71.2554C188.186 71.2554 188.816 71.2849 189.461 71.3194L199.917 45.9411L198.617 42.8365H204.076L204.175 43.078L233.321 114.029C233.321 114.034 233.321 114.039 233.326 114.039C233.454 114.216 233.587 114.394 233.725 114.566C233.815 114.327 233.893 114.084 233.957 113.837C234.006 113.65 234.488 113.245 234.641 113.31C234.803 113.374 234.852 113.842 234.872 114.211C234.864 114.524 234.799 114.833 234.68 115.123L234.503 115.566C235.31 116.567 236.152 117.538 237.038 118.469C237.127 118.508 237.205 118.592 237.304 118.602C238.574 118.73 239.327 117.503 239.578 115.005C239.594 114.628 239.565 114.251 239.489 113.881C239.849 113.236 240.208 112.59 240.597 111.88C240.046 111.368 239.229 112.009 239.012 110.777C239.386 109.362 239.519 107.879 239.775 106.42C239.943 104.929 240.277 103.462 240.769 102.044C240.83 101.716 240.858 101.383 240.853 101.049C241.04 99.3539 241.247 97.6587 241.36 95.9635C241.451 95.0598 241.354 94.147 241.074 93.2828H241.079C241.33 92.6077 241.65 92.3662 242.02 92.4254C242.069 93.2237 242.044 94.0565 242.118 94.7907C242.152 95.1061 242.468 95.382 242.655 95.3328C242.832 95.2884 243.117 94.8203 243.167 94.4556C243.471 91.9038 243.642 89.3379 243.679 86.7682C243.693 86.0832 243.393 85.6496 243.014 85.7629L243.014 85.7629ZM77.4571 74.0002L77.0781 73.9608C77.1765 73.6454 77.2307 73.192 77.4768 73.3152C77.5009 73.5434 77.4943 73.7738 77.4571 74.0002ZM85.2643 126.201L85.3775 126.186L85.4268 126.427L85.2643 126.201ZM89.7882 132.395C89.6455 132.218 89.5077 132.03 89.3747 131.848L89.5076 131.715L89.926 132.287C89.8768 132.326 89.798 132.41 89.7882 132.395H89.7882ZM94.0019 30.9555L93.9183 30.8471L94.2137 30.6697L94.0019 30.9555ZM209.058 157.493L209.083 157.635L208.802 157.749L209.058 157.493ZM226.627 124.998C226.493 125.17 226.35 125.335 226.198 125.491V124.934C226.33 124.848 226.47 124.775 226.617 124.717C226.646 124.708 226.656 124.964 226.627 124.998L226.627 124.998ZM226.577 117.02C226.666 116.853 226.917 116.695 227.02 116.734C227.124 116.779 227.193 117.04 227.163 117.252C227.116 117.512 227.004 117.756 226.838 117.961C226.545 118.172 226.23 118.351 225.898 118.494C226.134 118.006 226.326 117.488 226.577 117.02L226.577 117.02ZM224.092 128.098C224.121 128.044 224.269 128.034 224.318 128.078C224.348 128.116 224.369 128.16 224.378 128.207C224.388 128.254 224.386 128.303 224.372 128.349C224.018 129.586 223.333 130.557 221.758 131.7C222.861 130.069 223.496 129.098 224.092 128.098L224.092 128.098ZM199.789 160.962C199.643 161.214 199.441 161.429 199.198 161.589C198.956 161.75 198.679 161.852 198.391 161.888C197.892 162.007 197.385 162.084 196.874 162.12C196.692 162.13 196.663 161.942 196.564 161.844C196.74 161.627 196.943 161.435 197.17 161.272C197.708 161.006 198.262 160.774 198.829 160.577C199.71 160.237 200.054 160.395 199.789 160.962L199.789 160.962ZM203.682 157.276C203.331 157.497 202.964 157.693 202.585 157.862C202.658 157.606 202.732 157.355 202.831 157.024C203.221 156.841 203.622 156.682 204.032 156.546C204.386 156.468 204.214 156.886 203.682 157.276H203.682ZM222.521 136.239C222.251 136.993 221.994 137.771 221.611 138.658C221.935 138.811 222.244 138.992 222.536 139.2C222.615 139.264 222.541 139.55 222.492 139.757C222.422 139.881 222.324 139.988 222.206 140.068C221.286 140.155 220.358 140.127 219.445 139.984C219.159 139.905 219.272 139.131 219.336 138.589C219.502 138.232 219.752 137.921 220.065 137.683C220.426 137.594 220.796 137.544 221.167 137.535C221.689 137.417 222.118 136.86 222.521 136.239H222.521ZM220.089 134.889C220.016 135.24 219.907 135.584 219.765 135.914C219.618 136.112 219.419 136.264 219.189 136.352C219.14 136.048 219.118 135.739 219.125 135.431C219.558 135.189 219.824 135.041 220.089 134.889ZM218.179 141.738C218.239 141.787 218.291 141.845 218.332 141.911C218.559 142.423 218.785 142.941 219.056 143.562C218.711 143.813 218.327 144.187 218.15 144.197C217.899 144.207 217.795 143.951 217.628 143.808C217.399 143.912 217.182 144.039 216.978 144.187C216.741 144.408 216.517 144.643 216.309 144.892C215.349 145.937 214.694 146.085 214.207 145.75C214.843 144.947 215.392 144.08 215.846 143.162C216.378 142.068 217.736 141.275 218.179 141.738V141.738ZM211.086 147.997C212.19 147.052 213.132 145.933 213.877 144.685C214.502 144.616 214.118 145.37 214.153 145.784C213.598 146.811 212.809 147.693 211.849 148.356C211.288 148.76 210.756 149.332 210.18 149.795C209.949 149.746 209.718 149.692 209.496 149.643C209.846 148.903 210.54 148.519 211.086 147.997H211.086ZM209.988 149.997L209.629 150.396C209.697 150.294 209.773 150.197 209.855 150.106C209.9 150.066 209.944 150.032 209.988 149.997V149.997ZM211.918 150.677C212.109 150.531 212.329 150.427 212.563 150.372C212.589 150.682 212.513 150.992 212.346 151.254C211.937 151.741 211.472 152.179 210.963 152.56C210.225 153.187 209.332 153.605 208.379 153.772C209.599 152.786 210.732 151.697 211.918 150.677ZM206.198 152.56C206.183 152.373 206.518 151.983 206.73 151.624C206.941 151.742 207.113 151.776 207.182 151.89C207.274 152.087 207.343 152.293 207.389 152.506C206.723 153.333 205.847 153.968 204.854 154.344C205.499 153.772 206.237 153.215 206.198 152.56ZM204.677 154.472C203.886 155.395 202.948 156.181 201.9 156.798C201.492 157.039 200.847 156.901 200.98 156.532C201.146 156.191 201.373 155.884 201.649 155.625C201.89 155.432 202.155 155.271 202.437 155.147C203.126 154.762 203.89 154.532 204.677 154.472ZM199.026 154.398C200.17 153.969 201.204 153.291 202.053 152.412C201.64 153.288 201.05 154.068 200.32 154.703C199.71 155.176 199.052 155.582 198.356 155.916C197.426 156.418 196.865 156.33 196.407 156.054C197.121 155.283 198.024 154.712 199.026 154.398L199.026 154.398ZM190.446 158.902C191.379 158.222 192.473 157.796 193.621 157.665C193.867 157.645 193.901 157.971 193.99 158.158C194.014 158.212 193.891 158.355 193.842 158.439C193.599 158.611 193.34 158.759 193.069 158.882C192.232 159.134 191.41 159.354 190.603 159.543C190.401 159.587 190.13 159.533 190.116 159.424C190.133 159.319 190.171 159.219 190.227 159.129C190.284 159.04 190.358 158.962 190.446 158.902H190.446ZM185.183 164.756C185.387 164.703 185.598 164.681 185.808 164.692C185.69 164.761 185.582 164.845 185.454 164.904L184.43 165.352C184.666 165.135 184.918 164.936 185.183 164.756H185.183ZM183.042 165.988C183.416 165.816 183.8 165.658 184.184 165.5C183.969 165.745 183.73 165.968 183.47 166.166C183.23 166.23 182.98 166.254 182.732 166.235C182.824 166.139 182.928 166.056 183.042 165.988H183.042ZM182.353 163.47C182.402 163.45 182.5 163.544 182.5 163.608C182.495 163.654 182.48 163.699 182.456 163.738C182.432 163.778 182.4 163.813 182.363 163.84C181.693 164.037 181.009 164.18 180.339 164.342L180.315 164.061C180.989 163.859 181.683 163.682 182.353 163.47H182.353ZM175.589 175.676C175.657 175.681 175.725 175.69 175.791 175.706L175.215 175.721C175.339 175.698 175.464 175.683 175.589 175.676L175.589 175.676ZM158.897 178.633L158.906 178.48L159.32 178.549L158.897 178.633ZM167.747 171.645C168.988 171.291 169.795 170.911 170.598 171.192C169.724 171.656 168.721 171.816 167.747 171.645V171.645ZM172.877 165.86C173.012 165.84 173.149 165.835 173.285 165.845L173.148 166.023L172.508 166.028C172.624 165.959 172.748 165.903 172.877 165.86H172.877ZM168.574 166.668L168.919 166.88C168.668 166.939 168.417 167.013 168.166 167.053C168.087 167.062 168.003 166.979 167.92 166.939L168.574 166.668ZM167.358 169.186C167.882 168.948 168.428 168.762 168.988 168.629C170.598 168.408 171.784 168.689 173.098 168.807C173.172 168.817 173.172 168.94 173.138 169.009C173.089 169.104 173.009 169.179 172.911 169.221C172.645 169.357 172.362 169.456 172.069 169.516C170.583 169.684 169.076 169.65 167.615 169.684C167.418 169.689 167.324 169.507 167.181 169.408C167.235 169.334 167.255 169.226 167.359 169.186H167.358ZM164.306 177.953C164.624 177.918 164.942 177.9 165.261 177.899C165.306 177.899 165.306 178.002 165.325 178.056L163.947 178.254C163.932 178.254 163.903 178.155 163.883 178.101C164.018 178.036 164.16 177.986 164.307 177.953L164.306 177.953ZM151.02 170.492C152.842 170.389 154.51 170.862 156.238 170.699C157.051 170.645 157.843 170.606 158.636 170.596C159.428 170.571 160.216 170.541 161.018 170.571C158.926 171.424 158.645 171.517 156.898 171.315C155.011 171.113 153.107 171.127 151.222 171.355C149.824 171.507 148.786 171.419 147.836 170.827C147.486 170.61 146.89 170.472 146.221 170.182C148.087 169.837 149.558 170.482 151.02 170.492H151.02ZM148.224 172.518C146.68 172.693 145.117 172.418 143.725 171.724C147.073 171.823 147.063 171.793 148.224 172.518H148.224ZM136.701 170.325C137.582 170.507 138.448 170.724 139.462 170.891C138.552 170.885 137.644 170.797 136.75 170.63C135.783 170.403 134.84 170.085 133.934 169.679C134.933 169.96 135.819 170.142 136.701 170.325L136.701 170.325ZM124.704 169.482C124.758 169.566 124.867 169.664 124.842 169.714C124.822 169.763 124.66 169.753 124.556 169.768L124.399 169.536L124.704 169.482ZM122.484 165.914C122.626 165.944 122.762 165.995 122.888 166.067C122.979 166.136 123.06 166.217 123.129 166.308C122.851 166.303 122.583 166.202 122.371 166.023C122.405 165.983 122.425 165.904 122.484 165.914L122.484 165.914ZM113.205 161.878C113.146 161.952 112.732 161.918 112.545 161.799C111.561 161.218 110.566 160.632 109.582 160.045C108.621 159.439 107.691 158.784 106.796 158.084C105.614 157.182 104.654 156.231 103.33 155.561C102.209 154.928 101.218 154.087 100.411 153.082C99.599 152.166 98.767 151.175 98.0089 150.219C97.6644 149.78 97.1328 149.258 97.2657 148.76C98.2994 149.702 99.3578 150.574 100.347 151.505C101.38 152.389 102.366 153.327 103.301 154.314C104.223 155.205 105.212 156.024 106.259 156.763C107.327 157.497 108.44 158.168 109.493 158.917C110.694 159.72 112.033 160.37 113.008 161.366C113.18 161.524 113.284 161.785 113.205 161.878L113.205 161.878ZM113.682 159.863C112.895 159.39 112.25 158.956 111.585 158.606C110.87 158.302 110.17 157.962 109.488 157.586C108.558 156.995 107.642 156.349 106.756 155.684C106.328 155.267 105.799 154.969 105.221 154.817C104.226 154.689 103.68 153.964 103.256 153.245C102.971 152.786 102.858 152.353 102.144 152.057C101.132 151.627 100.273 150.902 99.6777 149.978C98.9984 148.977 98.2157 148.046 97.4428 147.075C96.6602 146.119 95.7889 145.207 94.9963 144.222C94.9323 144.143 94.9569 144.01 94.9422 143.887C95.1292 143.971 95.3754 144 95.5033 144.143C98.4354 147.234 101.559 150.138 104.856 152.836C107.657 155.107 110.443 157.409 113.461 159.429C113.545 159.488 113.554 159.607 113.682 159.863H113.682ZM108.716 153.94C108.834 153.59 108.912 153.353 108.991 153.122C109.154 153.481 109.311 153.816 108.716 153.94L108.716 153.94ZM108.922 152.969L107.519 151.89C108.115 152.097 108.696 152.313 108.922 152.969H108.922ZM105.944 150.258C106.44 150.736 106.907 151.243 107.342 151.776C106.678 151.692 106.013 151.658 105.324 151.505C103.929 151.206 102.692 150.405 101.849 149.253C101.007 148.095 99.7712 147.06 99.525 145.814C99.3626 145.04 98.5997 144.222 97.9154 143.453C98.2578 143.54 98.5815 143.688 98.8704 143.892L100.569 145.557C101.145 146.104 101.745 146.622 102.331 147.159C103.488 148.248 104.733 149.229 105.944 150.258H105.944ZM217.313 38.3128C217.014 38.0046 216.737 37.677 216.481 37.3321C216.388 37.1892 216.393 36.8591 216.501 36.8591C216.855 36.864 217.136 37.2878 217.293 37.6623C217.382 37.8643 217.313 38.0319 217.313 38.3128L217.313 38.3128ZM216.757 30.2607C216.005 29.291 215.182 28.3785 214.296 27.5307C213.338 26.6633 212.429 25.7437 211.573 24.776C212.673 24.9962 213.658 25.6027 214.35 26.486C214.96 27.2498 215.831 27.989 216.599 28.7774C217.367 29.5708 218.032 30.4184 218.061 31.4927C217.485 30.9161 217.018 30.6057 216.757 30.2607L216.757 30.2607ZM220.567 34.4099C219.681 33.5081 219.425 32.5423 220.139 32.4979C220.208 32.493 220.35 32.5965 220.473 32.6556C220.567 32.764 220.749 32.9217 220.769 32.9956C220.918 33.5406 221.029 34.0956 221.099 34.6563C220.901 34.6285 220.716 34.5428 220.567 34.4099L220.567 34.4099ZM221.665 32.7591L221.492 32.4832L221.748 32.6852L221.665 32.7591ZM225.12 35.5828C224.938 35.3542 224.778 35.1082 224.643 34.8485C224.851 34.9609 225.046 35.0964 225.224 35.2526C225.408 35.4763 225.573 35.7153 225.716 35.9671C225.498 35.8716 225.297 35.7418 225.12 35.5828L225.12 35.5828ZM226.366 41.644C226.403 41.4275 226.454 41.2136 226.518 41.0034C226.528 40.9787 226.701 41.1364 226.794 41.2104L226.804 42.0481C226.705 41.9544 226.602 41.8657 226.366 41.644L226.366 41.644ZM231.795 58.8964L231.909 58.7288L232.002 59.0048L231.795 58.8964ZM232.667 52.3423C232.514 51.3518 232.288 50.386 232.076 49.4053C232.686 50.5782 233.198 51.7264 232.667 52.3423L232.667 52.3423ZM232.918 62.2029L233.041 62.198L233.065 62.5085L232.918 62.2029ZM238.318 90.7401C238.106 90.814 237.855 91.0702 237.693 90.9125C237.396 90.5602 237.162 90.1603 236.999 89.7298C236.914 89.4693 236.884 89.1943 236.91 88.9217C236.929 88.845 236.977 88.7788 237.044 88.7374C237.112 88.6959 237.192 88.6825 237.269 88.6999C237.498 88.8269 237.71 88.9826 237.899 89.1631C238.014 89.3851 238.106 89.6178 238.175 89.858C238.237 90.1494 238.285 90.4438 238.318 90.74L238.318 90.7401ZM236.777 84.186C236.746 83.9211 236.741 83.6536 236.762 83.3877C236.856 83.0528 236.97 82.7237 237.102 82.4022C237.272 82.7538 237.415 83.1178 237.53 83.4912C237.558 83.74 237.508 83.9915 237.387 84.2107C237.205 84.3043 236.984 84.2057 236.777 84.186H236.777ZM237.589 66.3325C237.599 66.2733 237.88 66.5592 238.121 66.7563C238.11 67.1073 238.061 67.456 237.973 67.796C237.934 67.8897 237.668 67.5891 237.501 67.4708C237.509 67.09 237.538 66.7099 237.589 66.3325L237.589 66.3325ZM237.141 81.1258C237.148 81.4991 237.135 81.8725 237.102 82.2444C236.989 81.9192 236.866 81.6038 236.767 81.2638C236.755 81.1272 236.762 80.9896 236.787 80.8548C236.91 80.9484 237.136 81.0519 237.141 81.1258L237.141 81.1258ZM236.762 77.0406C236.817 77.1498 236.857 77.2658 236.88 77.3856C236.875 77.4913 236.855 77.5958 236.821 77.696C236.768 77.5883 236.728 77.474 236.703 77.356C236.708 77.2487 236.728 77.1425 236.762 77.0407L236.762 77.0406ZM235.896 110.663C235.827 111.25 235.443 111.624 234.97 111.55C234.904 111.251 234.889 110.943 234.926 110.639C235.094 109.998 235.438 109.471 235.733 109.658C235.881 109.752 235.945 110.279 235.896 110.663L235.896 110.663ZM237.338 104.908C237.18 105.422 236.921 105.899 236.575 106.312C236.27 106.736 235.881 106.386 235.955 105.804C236.117 104.415 236.196 103.01 236.378 101.493C236.454 101.162 236.627 100.861 236.875 100.63C236.928 100.603 236.985 100.588 237.044 100.587C237.103 100.585 237.161 100.597 237.214 100.621C237.268 100.645 237.315 100.681 237.353 100.726C237.391 100.771 237.418 100.824 237.432 100.882C237.738 102.21 237.706 103.595 237.338 104.908L237.338 104.908ZM236.93 97.0575C236.732 96.1254 236.729 95.1624 236.92 94.2289C237.043 93.2729 237.387 92.7752 237.978 92.7062C238.298 92.6668 238.559 93.4158 238.362 94.0318C238.146 94.7365 237.89 95.387 237.653 96.0522L236.93 97.0575ZM238.239 108.884C238.245 109.008 238.239 109.132 238.219 109.254C238.176 109.351 238.12 109.443 238.052 109.525L238.072 109.15L238.239 108.884ZM239.411 113.97C239.288 114.389 239.155 114.803 239.002 115.212C238.726 115.946 238.411 116.276 238.106 116.118C237.825 115.971 237.698 115.566 237.85 114.842C237.913 114.538 238.014 114.243 238.15 113.965C238.224 113.827 238.48 113.783 238.505 113.901C238.667 114.63 239.007 114.443 239.411 113.97L239.411 113.97ZM239.027 75.4046C238.899 75.2568 238.667 75.0794 238.662 74.9808C238.623 74.3993 238.628 73.8277 238.618 73.2561C238.761 73.8228 238.904 74.3895 239.046 74.9611C239.059 75.1092 239.053 75.2583 239.027 75.4046L239.027 75.4046ZM239.799 81.9734C239.819 81.8354 239.898 81.6383 239.927 81.663C240.051 81.7517 240.257 81.9143 240.272 82.0621C240.321 82.6879 240.307 83.3236 240.316 84.0382C240.071 83.7608 239.896 83.4284 239.806 83.069C239.716 82.7096 239.714 82.3338 239.8 81.9734L239.799 81.9734ZM240.43 87.4532L240.42 87.7143L240.311 87.5468L240.43 87.4532ZM240.543 94.9484C240.425 95.3919 240.336 95.8699 240.188 96.5204C240.068 96.107 239.977 95.6854 239.918 95.2589C239.834 94.0318 239.937 93.6721 240.415 93.4158C240.607 93.3353 240.812 93.2918 241.02 93.2877C240.878 93.8446 240.691 94.3867 240.543 94.9484H240.543ZM241.286 79.6031C241.321 79.3124 241.375 79.3715 241.439 79.7362L241.286 79.6031ZM242.089 92.0952L242.177 91.2772C242.211 91.3744 242.232 91.4754 242.241 91.5778C242.197 91.7601 242.143 91.9276 242.089 92.0952L242.089 92.0952ZM236.516 118.858C235.724 117.991 234.97 117.094 234.252 116.178C234.246 116.2 234.237 116.221 234.227 116.242L236.103 120.805C236.056 120.684 236.021 120.558 235.999 120.43C236.051 119.963 236.181 119.509 236.383 119.085C236.416 119.003 236.461 118.927 236.516 118.858L236.516 118.858ZM200.778 48.0995L191.189 71.4525C200.757 72.4015 209.568 77.0775 215.723 84.4718L200.778 48.0995ZM187.551 72.9161C181.715 72.9086 175.974 74.3946 170.873 77.2328V116.547L188.811 72.9259C188.398 72.9161 187.969 72.9161 187.551 72.9161L187.551 72.9161ZM153.068 107.44C153.076 112.144 154.043 116.797 155.91 121.113C157.778 125.43 160.506 129.319 163.927 132.543C164.479 131.952 164.981 130.892 165.616 129.335V129.33L165.847 128.768V80.6331C161.855 83.8647 158.636 87.9494 156.425 92.5878C154.213 97.2262 153.067 102.301 153.068 107.44L153.068 107.44ZM138 120.583C137.301 122.086 136.76 123.284 136.233 124.767C135.573 126.61 135.194 127.921 135.194 129.187C135.167 129.701 135.247 130.216 135.431 130.697C135.614 131.178 135.895 131.615 136.258 131.981C136.527 132.246 136.847 132.454 137.197 132.593C137.548 132.733 137.923 132.801 138.3 132.794C140.201 132.701 141.008 131.745 141.008 129.591C141.008 128.27 140.117 125.811 138 120.583L138 120.583ZM200.778 48.0995L191.189 71.4525C200.757 72.4015 209.568 77.0775 215.723 84.4718L200.778 48.0995ZM187.551 72.9161C181.715 72.9086 175.974 74.3946 170.873 77.2329V116.547L188.811 72.9259C188.398 72.9161 187.969 72.9161 187.551 72.9161V72.9161ZM153.068 107.441C153.076 112.144 154.043 116.797 155.91 121.113C157.778 125.43 160.506 129.319 163.928 132.543C164.479 131.952 164.981 130.892 165.616 129.335V129.33L165.847 128.768V80.6331C161.855 83.8647 158.636 87.9493 156.425 92.5878C154.213 97.2262 153.067 102.301 153.068 107.44V107.441ZM138 120.583C137.301 122.086 136.76 123.284 136.233 124.767C135.573 126.61 135.194 127.921 135.194 129.187C135.167 129.701 135.248 130.216 135.431 130.697C135.614 131.178 135.895 131.615 136.258 131.981C136.527 132.246 136.847 132.454 137.197 132.593C137.548 132.733 137.923 132.801 138.3 132.794C140.201 132.701 141.008 131.745 141.008 129.591C141.008 128.27 140.117 125.811 138 120.583L138 120.583ZM200.778 48.0995L191.189 71.4525C200.757 72.4015 209.568 77.0775 215.723 84.4718L200.778 48.0995ZM187.551 72.9161C181.715 72.9086 175.974 74.3946 170.873 77.2329V116.547L188.811 72.9259C188.398 72.9161 187.969 72.9161 187.551 72.9161V72.9161ZM153.068 107.441C153.076 112.144 154.043 116.797 155.91 121.113C157.778 125.43 160.506 129.319 163.928 132.543C164.479 131.952 164.981 130.892 165.616 129.335V129.33L165.847 128.768V80.6331C161.855 83.8647 158.636 87.9493 156.425 92.5878C154.213 97.2262 153.067 102.301 153.068 107.44V107.441ZM138 120.583C137.301 122.086 136.76 123.284 136.233 124.767C135.573 126.61 135.194 127.921 135.194 129.187C135.167 129.701 135.248 130.216 135.431 130.697C135.614 131.178 135.895 131.615 136.258 131.981C136.527 132.246 136.847 132.454 137.197 132.593C137.548 132.733 137.923 132.801 138.3 132.794C140.201 132.701 141.008 131.745 141.008 129.591C141.008 128.27 140.117 125.811 138 120.583L138 120.583ZM138 120.583C137.301 122.086 136.76 123.284 136.233 124.767C135.573 126.61 135.194 127.921 135.194 129.187C135.167 129.701 135.248 130.216 135.431 130.697C135.614 131.178 135.895 131.615 136.258 131.981C136.527 132.246 136.847 132.454 137.197 132.593C137.548 132.733 137.923 132.801 138.3 132.794C140.201 132.701 141.008 131.745 141.008 129.591C141.008 128.27 140.117 125.811 138 120.583L138 120.583ZM138 120.583C137.301 122.086 136.76 123.284 136.233 124.767C135.573 126.61 135.194 127.921 135.194 129.187C135.167 129.701 135.248 130.216 135.431 130.697C135.614 131.178 135.895 131.615 136.258 131.981C136.527 132.246 136.847 132.454 137.197 132.593C137.548 132.733 137.923 132.801 138.3 132.794C140.201 132.701 141.008 131.745 141.008 129.591C141.008 128.27 140.117 125.811 138 120.583L138 120.583Z" fill="#020202"/>
<path d="M156.297 0.0973711C155.077 0.151577 153.831 0.102299 152.601 0.146649C151.385 0.13383 150.172 0.252791 148.982 0.501454C148.911 0.659707 148.863 0.827304 148.84 0.999165C148.869 1.5363 148.032 1.88125 147.023 1.70385C146.433 1.55654 145.851 1.37723 145.281 1.16671C143.563 1.4131 141.613 1.58558 139.703 1.97488C139.47 2.04358 139.244 2.13605 139.029 2.25084C139.76 2.53287 140.564 2.56235 141.313 2.33461C142.11 2.17694 142.933 1.91082 143.72 1.81226C144.71 2.46273 144.69 2.47752 146.221 2.41346C146.995 2.4139 147.767 2.50653 148.52 2.68941C149.313 2.89409 150.14 2.92768 150.947 2.78797C152.438 2.42331 152.153 2.99001 152.443 3.28075C152.641 3.41878 152.872 3.50207 153.113 3.52222C153.521 3.41873 154.141 3.25612 154.171 3.10828C154.296 2.29881 154.373 1.48265 154.402 0.664072C155.352 0.742918 156.352 0.974526 156.962 0.861186C158.637 0.487054 160.372 0.475294 162.052 0.826691C162.18 0.866061 162.315 0.876199 162.448 0.85636C162.58 0.836522 162.707 0.78721 162.818 0.712051C162.929 0.636892 163.021 0.537794 163.089 0.422043C163.157 0.306291 163.198 0.176826 163.209 0.0431649C160.88 0.00867493 158.582 -0.0553919 156.297 0.0973711ZM151.37 1.58558C151.257 1.56587 151.119 1.49688 151.129 1.4476C151.178 1.32034 151.248 1.20211 151.335 1.09772C151.449 1.11251 151.655 1.12236 151.665 1.15193C151.693 1.2731 151.703 1.39754 151.695 1.52152C151.59 1.55859 151.481 1.58018 151.37 1.58559V1.58558Z" fill="#020202"/>
<path d="M242.715 98.0366C242.679 98.3617 242.616 98.6832 242.525 98.9976C241.817 99.983 241.505 101.199 241.651 102.404C241.689 102.883 241.678 103.364 241.617 103.841C241.487 104.613 241.054 105.178 241.162 106.188C241.115 107.219 240.989 108.245 240.784 109.257C241.147 108.37 241.472 107.485 241.762 106.6C242.038 105.713 242.243 104.818 242.443 103.928C242.823 102.155 243.071 100.356 243.183 98.5458C243.162 98.3258 243.074 98.1177 242.929 97.9507C242.886 97.887 242.735 97.957 242.715 98.0366Z" fill="#020202"/>
<path d="M133.356 5.75089C133.598 5.859 133.868 5.88719 134.127 5.83137C134.959 5.64547 135.783 5.40471 136.612 5.18678L136.601 5.13934C137.778 4.87389 138.981 4.71055 140.154 4.44703C140.605 4.33208 141.04 4.15851 141.446 3.93073C141.66 3.82423 141.816 3.6068 141.741 3.4993C141.534 3.34231 141.274 3.27174 141.015 3.30234C139.735 3.47134 138.47 3.74224 137.233 4.11248C136.02 4.48572 134.848 4.94894 133.641 5.32945C133.466 5.38527 133.268 5.6753 133.356 5.75089Z" fill="#020202"/>
<path d="M117.144 10.8757L119.493 9.80225C120.293 9.44254 121.136 9.12639 122.013 8.76583L122.409 8.07283C122.739 7.62949 123.215 7.31707 123.753 7.19061C122.667 7.09895 121.421 7.55355 120.118 8.07591C118.472 8.73946 117.826 9.73216 116.816 10.5734C116.744 10.6348 116.803 10.7397 116.861 10.7914C116.899 10.8248 116.944 10.8496 116.993 10.8641C117.042 10.8787 117.093 10.8826 117.144 10.8757Z" fill="#020202"/>
<path d="M225.056 139.945C224.44 140.501 223.833 141.048 223.244 141.579C222.982 142.536 223.199 142.885 223.824 142.513C224.8 141.914 225.725 141.235 226.59 140.484C226.928 140.086 227.227 139.656 227.484 139.202C227.268 138.847 227.071 138.523 226.857 138.172C226.251 138.769 225.649 139.362 225.056 139.945Z" fill="#020202"/>
<path d="M228.731 135.526C229.264 135.462 229.852 135.405 230.536 134.35C231.273 133.209 231.877 131.978 232.891 130.146C230.957 131.357 229.824 132.946 228.672 134.977C228.584 135.138 228.623 135.539 228.731 135.526Z" fill="#020202"/>
<path d="M189.203 10.3697C189.673 10.2741 190.131 10.1249 190.567 9.92494C189.835 9.70041 189.093 9.51274 188.343 9.36262C188.048 9.31676 187.913 9.57481 187.757 9.72123C187.721 9.75435 187.883 9.94809 187.968 9.9796C188.359 10.1675 188.775 10.2989 189.203 10.3697Z" fill="#020202"/>
<path d="M124.003 7.11426C123.978 7.11811 123.956 7.12555 123.931 7.12926C123.868 7.14746 123.814 7.1708 123.753 7.19059C123.794 7.19401 123.838 7.18507 123.878 7.19007C123.918 7.16311 123.963 7.14083 124.003 7.11426Z" fill="#020202"/>
<path d="M128.708 5.18158C127.035 5.5332 125.44 6.18821 124.003 7.11428C125.706 6.86575 127.322 6.20206 128.708 5.18158Z" fill="#020202"/>
<path d="M200.843 13.7777C200.931 13.7234 200.803 13.4038 200.648 13.2945C199.934 12.8171 199.191 12.385 198.423 12.0005C199.354 12.8322 199.717 13.2347 200.158 13.6144C200.364 13.7386 200.603 13.7957 200.843 13.7777Z" fill="#020202"/>
<path d="M175.937 5.60409C176.169 5.64276 176.405 5.64841 176.639 5.62088C176.572 5.54132 176.541 5.44241 176.429 5.38615C176.165 5.25379 175.861 5.14178 175.572 5.02199C175.429 5.01137 175.175 4.97185 175.157 5.0065C175.015 5.25964 175.537 5.44684 175.937 5.60409Z" fill="#020202"/>
<path d="M180.869 174.832C181.568 174.56 182.351 174.341 183.101 174.102L183.296 174.075L183.128 174.094L183.059 174.108C182.37 174.15 181.689 174.27 181.027 174.466C180.374 174.616 179.716 174.788 179.071 174.906C179.467 175.117 179.921 175.204 180.869 174.832Z" fill="#020202"/>
<path d="M179.071 174.906C179.049 174.895 179.026 174.884 179.004 174.872L178.996 174.872C178.974 174.894 178.953 174.915 178.93 174.936C178.976 174.928 179.024 174.915 179.071 174.906Z" fill="#020202"/>
<path d="M208.672 19.6018C208.827 19.5663 209.093 19.5313 209.033 19.4115C208.823 19.0658 208.586 18.7364 208.326 18.4261C208.074 18.4023 207.711 18.3299 207.734 18.378C207.906 18.7153 208.103 19.0393 208.323 19.347C208.422 19.4539 208.541 19.5404 208.672 19.6018Z" fill="#020202"/>
<path d="M190.618 7.96185C190.413 7.72875 190.178 7.52423 189.919 7.35375C189.663 7.24245 189.383 7.19864 189.106 7.22651C189.008 7.25577 189.251 7.63776 189.325 7.66115C189.725 7.78805 190.122 7.85308 190.618 7.96185Z" fill="#020202"/>
<path d="M211.567 21.5347C211.602 21.447 211.33 21.1349 211.193 20.9213C210.986 20.8906 210.623 20.761 210.612 20.8563C210.599 20.9798 210.865 21.2824 211.011 21.5082C211.208 21.5257 211.527 21.6321 211.567 21.5347Z" fill="#020202"/>
<path d="M83.7313 42.0299L83.1736 42.5256L82.801 43.3061C83.0005 43.1718 83.1826 43.0131 83.3428 42.8337C83.4949 42.5773 83.6248 42.3084 83.7313 42.0299Z" fill="#020202"/>
<path d="M195.404 167.862C195.441 167.84 195.48 167.819 195.518 167.797L195.452 167.772C195.44 167.782 195.427 167.792 195.415 167.802C195.41 167.822 195.407 167.842 195.404 167.862Z" fill="#020202"/>
<path d="M193.797 169.029C194.078 168.99 194.355 168.924 194.623 168.833C195.493 168.461 195.344 168.168 195.404 167.862C195.008 168.088 194.602 168.307 194.234 168.552C194.068 168.69 193.921 168.851 193.797 169.029Z" fill="#020202"/>
<path d="M204.17 15.7627C204.059 15.6665 203.932 15.5907 203.795 15.5387C203.7 15.6138 203.619 15.7062 203.558 15.811C203.816 15.9637 204.074 16.1164 204.335 16.2708C204.298 16.096 204.243 15.9257 204.17 15.7627Z" fill="#020202"/>
<path d="M239.786 62.859C239.902 63.0661 240.033 63.2635 240.18 63.4494C240.141 63.1567 240.063 62.8703 239.951 62.5973C239.825 62.3982 239.672 62.218 239.496 62.062C239.576 62.3334 239.673 62.5996 239.786 62.859Z" fill="#020202"/>
<path d="M132.826 4.13599C132.624 4.11038 132.42 4.09503 132.216 4.09C132.139 4.14746 132.066 4.21069 131.998 4.27914C132.206 4.2941 132.415 4.31052 132.625 4.33857L132.826 4.13599Z" fill="#020202"/>
<path d="M212.697 153.75C212.797 153.755 213.104 153.486 213.316 153.341C213.246 153.247 213.227 153.037 213.096 153.082C212.756 153.217 212.425 153.374 212.105 153.552C212.287 153.657 212.488 153.725 212.697 153.75Z" fill="#020202"/>
<path d="M212.105 153.552C212.083 153.542 212.062 153.531 212.039 153.522L212.014 153.539C212.01 153.561 212.002 153.584 211.999 153.606C212.034 153.589 212.07 153.569 212.105 153.552Z" fill="#020202"/>
<path d="M223.754 133.825L223.967 133.48C223.849 133.444 223.727 133.425 223.604 133.424C223.525 133.522 223.455 133.626 223.396 133.736C223.514 133.765 223.631 133.795 223.754 133.825Z" fill="#020202"/>
<path d="M79.8801 121.97L79.4601 121.324L79.3676 121.828C79.5213 121.974 79.675 122.132 79.8276 122.249C79.847 122.263 79.8626 122.068 79.8801 121.97Z" fill="#020202"/>
<path d="M193.895 9.96339C193.961 9.93792 193.926 9.84056 193.934 9.77439L193.386 9.64966L193.547 9.89572C193.659 9.93484 193.777 9.95763 193.895 9.96339Z" fill="#020202"/>
<path d="M157.717 2.95374L157.859 2.81674L157.585 2.80984L157.717 2.95374Z" fill="#020202"/>
<path d="M172.055 4.27428C171.944 4.22724 171.83 4.18861 171.713 4.1587C171.67 4.15043 171.619 4.2134 171.572 4.24377C171.684 4.29146 171.799 4.33101 171.917 4.36212C171.957 4.37034 172.009 4.30563 172.055 4.27428Z" fill="#020202"/>
<path d="M182.076 6.90675C181.955 6.83835 181.828 6.77921 181.698 6.72984C181.654 6.71608 181.584 6.78676 181.526 6.8188C181.648 6.88835 181.775 6.9492 181.905 7.0009C181.943 7.01351 182.018 6.94038 182.076 6.90675Z" fill="#020202"/>
<path d="M138.824 175.852L139.585 175.875L139.608 175.85L139.519 175.834C139.249 175.841 138.978 175.848 138.824 175.852Z" fill="#020202"/>
<path d="M193.361 11.7549C193.349 11.7375 193.339 11.7194 193.327 11.7022L193.123 11.5206L193.238 11.699C193.279 11.7174 193.32 11.7369 193.361 11.7549Z" fill="#020202"/>
<path d="M194.463 12.394C194.37 12.2853 194.262 12.1894 194.143 12.1087C193.892 11.9779 193.624 11.8692 193.361 11.7549C193.462 11.9439 193.597 12.1126 193.759 12.2525C193.986 12.3326 194.223 12.3802 194.463 12.394Z" fill="#020202"/>
<path d="M91.5028 32.5014C91.5227 32.4945 91.5433 32.4858 91.5633 32.4787C91.5823 32.4583 91.6026 32.4377 91.6217 32.4173L91.5817 32.399C91.5554 32.4324 91.529 32.467 91.5028 32.5014Z" fill="#020202"/>
<path d="M90.8011 32.9923C91.0541 33.1029 91.2781 32.7959 91.5028 32.5014C91.3221 32.5582 91.1446 32.625 90.9714 32.7016C90.8976 32.7875 90.84 32.8859 90.8011 32.9923Z" fill="#020202"/>
<path d="M228.267 127.795L228.379 127.379C228.371 127.402 228.36 127.425 228.352 127.447C228.312 127.564 228.299 127.681 228.267 127.795Z" fill="#020202"/>
<path d="M228.379 127.379C228.426 127.252 228.48 127.123 228.532 126.995C228.531 126.974 228.532 126.954 228.532 126.933L228.469 127.045L228.379 127.379Z" fill="#020202"/>
<path d="M72.9554 76.3232C72.9844 76.2217 72.9891 76.1147 72.9691 76.0111C72.9687 75.994 72.9664 75.9764 72.9658 75.9592C72.9492 75.9977 72.942 76.038 72.9237 76.0761L72.9554 76.3232Z" fill="#020202"/>
<path d="M73.0318 76.9178L72.9554 76.3232C72.9035 76.584 72.8129 76.8758 73.0318 76.9178Z" fill="#020202"/>
<path d="M81.2723 112.725C81.2335 112.767 81.1549 112.815 81.1636 112.85C81.1985 112.964 81.245 113.074 81.3023 113.178C81.3378 113.135 81.4099 113.091 81.4015 113.05C81.3679 112.938 81.3247 112.829 81.2723 112.725Z" fill="#020202"/>
<path d="M199.93 166.19L200.027 166.013L199.783 166.138L199.93 166.19Z" fill="#020202"/>
<path d="M218.246 150.824L218.102 150.893C218.093 150.896 218.086 150.901 218.078 150.904C218.077 150.909 218.074 150.914 218.073 150.919L218.246 150.824Z" fill="#020202"/>
<path d="M190.766 9.93683L190.571 9.9234L190.567 9.92495C190.581 9.92859 190.594 9.93263 190.608 9.93621L190.766 9.93683Z" fill="#020202"/>
<path d="M131.086 6.37515L130.846 6.42542L130.955 6.51165L131.086 6.37515Z" fill="#020202"/>
<path d="M128.774 7.37007L128.545 7.35669L128.448 7.41813C128.459 7.41745 128.47 7.41779 128.481 7.41701L128.774 7.37007Z" fill="#020202"/>
<path d="M102.692 148.481C102.594 148.425 102.491 148.377 102.386 148.336C102.423 148.519 102.475 148.699 102.54 148.873C102.643 148.95 102.755 149.013 102.874 149.062C102.814 148.872 102.77 148.679 102.692 148.481Z" fill="#020202"/>
<path d="M232.938 125.225L233.026 125.437C233.051 125.264 233.075 125.092 233.095 124.919C233.041 125.023 232.992 125.122 232.938 125.225ZM239.17 129.295L236.388 122.525C236.315 122.67 236.229 122.808 236.132 122.939C235.985 123.145 235.566 123.692 235.566 123.692L235.512 123.673C235.512 123.673 234.257 125.811 233.843 126.403C233.77 126.507 233.689 126.606 233.602 126.698C233.588 126.712 233.574 126.727 233.563 126.743L234.296 128.527C235.871 133.257 236.457 133.735 232.43 133.735V134.322H244.919V133.735C242.138 133.735 241.109 133.735 239.17 129.295Z" fill="#020202"/>
<path d="M244.919 133.346C242.187 133.346 241.365 133.346 239.529 129.148L236.536 121.859C236.556 122.091 236.505 122.323 236.388 122.525C236.315 122.67 236.229 122.808 236.132 122.939L238.81 129.453C240.149 132.513 241.124 133.568 242.443 133.933H234.857C235.176 133.859 235.458 133.676 235.655 133.415C236.142 132.735 235.788 131.7 235.084 129.635C234.956 129.261 234.813 128.852 234.655 128.379L233.843 126.403C233.77 126.507 233.689 126.606 233.602 126.698C233.588 126.712 233.574 126.727 233.563 126.743L233.026 125.437C233.051 125.264 233.075 125.092 233.095 124.92C233.041 125.023 232.992 125.122 232.937 125.225C232.859 125.378 232.78 125.526 232.701 125.673L232.913 126.186L233.248 126.999L233.927 128.65C234.079 129.098 234.217 129.512 234.35 129.887C234.906 131.528 235.281 132.607 235.025 132.962C234.774 133.317 233.602 133.346 232.43 133.346H232.042V134.711H245.308V133.346H244.919Z" fill="#020202"/>
<path d="M267.391 110.54C266.821 109.774 266.102 109.132 265.277 108.653C264.452 108.173 263.538 107.867 262.591 107.751C261.609 107.616 260.609 107.802 259.741 108.283C258.91 108.781 258.221 109.483 257.738 110.323C257.266 111.122 256.899 111.978 256.645 112.871C256.581 113.098 256.517 113.319 256.463 113.546C256.408 113.398 256.349 113.25 256.285 113.103C255.958 112.268 255.391 111.55 254.656 111.038C254.263 110.784 253.816 110.625 253.351 110.575C252.903 110.528 252.449 110.561 252.012 110.673C251.8 110.726 251.591 110.793 251.387 110.875C251.176 110.949 250.973 111.045 250.782 111.161C250.392 111.398 250.056 111.716 249.797 112.092C249.317 112.815 249.007 113.637 248.892 114.497C248.77 115.328 248.752 116.17 248.837 117.005C249.015 118.651 249.459 120.258 250.152 121.761C250.894 123.388 251.869 124.899 253.046 126.245C252.565 126.291 252.082 126.308 251.599 126.294C249.87 126.254 248.16 125.913 246.548 125.284C244.924 124.648 243.385 123.814 241.965 122.801C240.184 121.523 238.533 120.072 237.038 118.469C237.015 118.459 236.989 118.454 236.964 118.455C236.938 118.456 236.913 118.462 236.89 118.474C236.738 118.572 236.611 118.704 236.516 118.858C238.032 120.54 239.71 122.067 241.527 123.417C242.983 124.495 244.569 125.384 246.248 126.063C247.948 126.738 249.752 127.11 251.579 127.162C252.316 127.186 253.054 127.148 253.785 127.048C254.567 127.858 255.415 128.601 256.32 129.271C258.95 131.196 261.929 132.591 265.092 133.376C261.987 132.473 259.078 130.995 256.517 129.019C255.723 128.391 254.976 127.706 254.282 126.969C255.186 126.817 256.079 126.605 256.955 126.334C258.695 125.834 260.377 125.148 261.971 124.289C263.592 123.428 265.052 122.29 266.283 120.928C267.553 119.537 268.391 117.806 268.695 115.946C268.986 114.042 268.518 112.101 267.391 110.54ZM267.725 115.808C267.444 117.479 266.691 119.035 265.555 120.292C264.405 121.579 263.041 122.657 261.523 123.476C259.99 124.31 258.373 124.979 256.699 125.471C255.682 125.797 254.64 126.036 253.583 126.186C252.389 124.787 251.407 123.22 250.669 121.534C250.025 120.08 249.624 118.53 249.482 116.946C249.415 116.167 249.446 115.382 249.576 114.61C249.684 113.86 249.964 113.145 250.393 112.521C250.598 112.231 250.861 111.988 251.166 111.807C251.323 111.719 251.488 111.646 251.658 111.59C251.831 111.524 252.009 111.469 252.19 111.427C252.528 111.332 252.883 111.31 253.23 111.361C253.578 111.412 253.911 111.535 254.208 111.723C254.799 112.158 255.253 112.753 255.517 113.438C255.812 114.146 256.013 114.89 256.113 115.65L256.551 119.105L256.965 115.64C257.127 113.933 257.647 112.279 258.491 110.786C258.9 110.078 259.483 109.486 260.184 109.067C260.886 108.684 261.693 108.541 262.483 108.658C263.303 108.763 264.093 109.034 264.806 109.454C265.518 109.874 266.138 110.435 266.628 111.102C267.597 112.465 267.992 114.156 267.725 115.808Z" fill="#020202"/>
<path d="M32.51 201.089V232.322H29.6971V205.254L16.0497 230.904L2.54468 205.52V232.322H0.82251V201.09H3.44123L3.82814 201.846L16.6625 225.957L29.9692 201.089H32.51Z" fill="#020202"/>
<path d="M33.3325 233.145H28.8747V208.551L16.0498 232.655L3.36698 208.817V233.145H0V200.266H3.94448L4.56012 201.472L16.6646 224.21L29.4767 200.266H33.3325V233.145ZM30.5197 231.499H31.6875V201.912H30.4614L16.6606 227.705L2.93848 201.913H1.64494V231.499H1.72204V202.223L16.0498 229.153L30.5197 201.957V231.499Z" fill="#020202"/>
<path d="M77.6999 216.749C77.7279 219.591 77.0552 222.397 75.7414 224.917C74.4219 227.404 72.4203 229.462 69.9721 230.849C67.2155 232.375 64.1029 233.137 60.9542 233.06C57.434 233.06 54.368 232.325 51.8437 230.875C49.3995 229.506 47.4091 227.45 46.1181 224.961C44.8595 222.399 44.2051 219.582 44.2051 216.726C44.2051 213.871 44.8595 211.054 46.1181 208.491C47.4119 206 49.4007 203.939 51.8427 202.559C54.3673 201.092 57.433 200.349 60.9542 200.349C64.4727 200.349 67.5377 201.092 70.062 202.559C72.5046 203.939 74.4937 206 75.7869 208.491C77.0789 211.05 77.7352 213.882 77.6999 216.749ZM72.8173 209.211C71.8285 207.028 70.244 205.168 68.2461 203.845C66.068 202.47 63.5305 201.775 60.9566 201.849C58.3814 201.776 55.8428 202.471 53.6631 203.846C51.665 205.166 50.0818 207.027 49.097 209.211C48.0696 211.583 47.5395 214.141 47.5393 216.727C47.5392 219.312 48.0691 221.87 49.0963 224.243C50.0777 226.423 51.6617 228.276 53.6613 229.584C55.8463 230.945 58.3833 231.632 60.9559 231.56C63.5272 231.633 66.0629 230.945 68.2461 229.584C70.2457 228.275 71.8309 226.422 72.8156 224.243C73.8424 221.87 74.3723 219.313 74.3726 216.727C74.3729 214.142 73.8435 211.584 72.8173 209.211Z" fill="#020202"/>
<path d="M60.9541 233.336C57.3844 233.336 54.273 232.589 51.7063 231.116C49.2155 229.72 47.1875 227.624 45.8723 225.088C44.5935 222.487 43.9284 219.626 43.9284 216.726C43.9284 213.827 44.5935 210.966 45.8723 208.364C47.19 205.826 49.216 203.726 51.7038 202.319C54.27 200.828 57.3825 200.072 60.9541 200.072C64.5238 200.072 67.635 200.828 70.2008 202.319C72.6891 203.726 74.7153 205.826 76.0326 208.364C77.345 210.962 78.0118 213.838 77.9766 216.749C78.0047 219.636 77.3209 222.487 75.9859 225.047C74.6423 227.58 72.6041 229.676 70.1109 231.089C67.3121 232.639 64.1515 233.414 60.9541 233.336ZM60.9541 200.626C57.4811 200.626 54.4623 201.357 51.9815 202.798C49.5852 204.153 47.6336 206.175 46.3639 208.618C45.1255 211.142 44.4815 213.915 44.4815 216.726C44.4815 219.537 45.1255 222.311 46.3639 224.834C47.6306 227.276 49.5835 229.292 51.9817 230.635C54.4634 232.06 57.4821 232.783 60.9541 232.783C64.054 232.86 67.1186 232.11 69.8333 230.61C72.2363 229.249 74.2012 227.229 75.4971 224.788C76.7896 222.308 77.4513 219.546 77.4235 216.749C77.4586 213.926 76.8128 211.137 75.5411 208.619C74.2719 206.174 72.32 204.152 69.9232 202.798C67.4427 201.357 64.425 200.626 60.9541 200.626ZM60.956 231.836C58.3296 231.909 55.7399 231.207 53.51 229.816C51.4669 228.479 49.8482 226.586 48.8452 224.358C47.8014 221.95 47.2628 219.352 47.2629 216.727C47.263 214.101 47.8017 211.503 48.8458 209.095C49.852 206.864 51.4694 204.964 53.5103 203.615C55.7352 202.21 58.327 201.499 60.9565 201.571C63.5848 201.498 66.1755 202.209 68.3987 203.614C70.4394 204.965 72.058 206.865 73.0684 209.095V209.095C74.1114 211.504 74.6494 214.102 74.6491 216.727C74.6488 219.352 74.1103 221.95 73.0668 224.358C72.0605 226.585 70.4407 228.478 68.3976 229.815C66.1696 231.207 63.5811 231.91 60.956 231.836ZM60.9565 202.125C58.4356 202.053 55.9501 202.732 53.8155 204.077C51.8606 205.369 50.3117 207.189 49.3483 209.327C48.3377 211.663 47.8161 214.181 47.816 216.727C47.8158 219.272 48.3371 221.791 49.3475 224.127C50.3076 226.259 51.857 228.073 53.8128 229.352C55.953 230.684 58.4372 231.355 60.956 231.283C63.4735 231.355 65.9565 230.684 68.0949 229.352C70.0507 228.071 71.6012 226.259 72.5644 224.127C73.5745 221.791 74.0957 219.272 74.096 216.727C74.0963 214.182 73.5756 211.663 72.5661 209.327C71.5984 207.19 70.0481 205.37 68.0932 204.076C65.9604 202.731 63.4761 202.052 60.9565 202.125Z" fill="#020202"/>
<path d="M117.528 201.089V232.319H116.001L115.954 232.12C115.935 232.038 113.907 223.76 102.093 217.193C95.6916 213.738 91.0707 210.167 88.3457 206.57V232.321H86.4619V201.089H88.284L88.3474 201.252C89.344 203.786 92.5581 208.9 102.89 214.684C110.27 218.817 113.882 222.681 115.645 225.411V201.089H117.528Z" fill="#020202"/>
<path d="M88.6222 232.598H86.1854V200.812H88.4734L88.6052 201.152C89.5877 203.65 92.7682 208.7 103.025 214.442C109.924 218.306 113.516 221.943 115.369 224.517V200.812H117.805V232.596H115.781L115.685 232.183C115.665 232.1 113.627 223.921 101.959 217.435C95.9007 214.165 91.4185 210.781 88.6222 207.367L88.6222 232.598ZM86.7385 232.044H88.0691V205.746L88.566 206.403C91.2656 209.966 95.861 213.515 102.225 216.949C113.94 223.461 116.114 231.615 116.22 232.042H117.252V201.365H115.922V226.35L115.413 225.562C113.776 223.027 110.251 219.123 102.755 214.926C92.365 209.109 89.1102 203.938 88.0948 201.365H86.7385V232.044Z" fill="#020202"/>
<path d="M158.412 232.322H155.03L151.15 223.939H135.348C134.811 223.942 134.286 224.097 133.832 224.385C133.379 224.674 133.016 225.084 132.785 225.57L129.569 232.322H127.404L143.001 199.964H143.678L156.945 229.102L156.717 229.221L156.951 229.114L158.412 232.322ZM142.867 205.57L134.494 222.341H150.327L142.867 205.57Z" fill="#020202"/>
<path d="M159.69 233.145H154.505L150.625 224.762H135.348C134.965 224.766 134.59 224.878 134.268 225.085C133.945 225.293 133.687 225.587 133.523 225.934L130.088 233.145H126.093L142.484 199.141H144.207L157.358 228.024L157.358 228.023L159.69 233.145ZM155.555 231.499H157.133L156.203 229.456L156.697 229.23L156.691 229.218L156.196 229.444L143.328 201.18L128.713 231.499H129.05L132.043 225.215C132.298 224.682 132.677 224.218 133.147 223.862C133.618 223.505 134.166 223.266 134.748 223.165H133.164L142.91 203.643L151.572 223.115H151.675L155.555 231.499ZM135.825 221.518H149.06L142.824 207.498L135.825 221.518Z" fill="#020202"/>
<path d="M202.869 201.089V232.322H199.782V205.254L184.805 230.904L169.984 205.52V232.322H168.095V201.09H170.969L171.393 201.846L185.478 225.957L200.081 201.089H202.869Z" fill="#020202"/>
<path d="M203.146 232.599H199.506V206.276L184.805 231.452L170.26 206.542V232.599H167.818V200.813H171.13L171.634 201.71L185.478 225.41L199.923 200.812H203.146V232.599ZM200.059 232.046H202.593V201.365H200.239L185.477 226.504L170.807 201.367H168.372V232.046H169.707V204.498L184.805 230.355L200.059 204.231V232.046Z" fill="#020202"/>
<path d="M244.972 216.749C245 219.591 244.328 222.397 243.014 224.917C241.694 227.404 239.693 229.462 237.244 230.849C234.488 232.375 231.375 233.137 228.227 233.06C224.706 233.06 221.64 232.325 219.116 230.875C216.672 229.506 214.681 227.45 213.39 224.961C212.132 222.399 211.477 219.582 211.477 216.726C211.477 213.871 212.132 211.054 213.39 208.491C214.684 206 216.673 203.939 219.115 202.559C221.64 201.092 224.705 200.349 228.227 200.349C231.745 200.349 234.81 201.092 237.334 202.559C239.777 203.939 241.766 206 243.059 208.491C244.351 211.05 245.008 213.882 244.972 216.749ZM240.09 209.211C239.101 207.028 237.516 205.168 235.518 203.845C233.31 202.538 230.792 201.848 228.227 201.849C225.662 201.849 223.143 202.538 220.935 203.846C218.937 205.166 217.354 207.027 216.369 209.211C215.342 211.583 214.812 214.141 214.812 216.727C214.812 219.312 215.341 221.87 216.369 224.243C217.35 226.423 218.934 228.276 220.934 229.584C223.147 230.878 225.663 231.56 228.226 231.56C230.789 231.56 233.306 230.878 235.518 229.584C237.518 228.275 239.103 226.422 240.088 224.243C241.115 221.87 241.645 219.313 241.645 216.727C241.645 214.142 241.116 211.584 240.09 209.211V209.211Z" fill="#020202"/>
<path d="M228.226 233.336C224.657 233.336 221.545 232.589 218.979 231.116C216.488 229.72 214.46 227.624 213.145 225.088C211.866 222.487 211.201 219.626 211.201 216.726C211.201 213.827 211.866 210.966 213.145 208.364C214.462 205.826 216.488 203.726 218.976 202.319C221.542 200.828 224.655 200.072 228.226 200.072C231.796 200.072 234.907 200.828 237.473 202.319C239.961 203.726 241.988 205.826 243.305 208.364C244.617 210.962 245.284 213.838 245.249 216.749C245.277 219.636 244.593 222.487 243.258 225.047C241.915 227.58 239.876 229.676 237.383 231.089C234.584 232.639 231.424 233.414 228.226 233.336ZM228.226 200.626C224.753 200.626 221.735 201.357 219.254 202.798C216.858 204.153 214.906 206.175 213.636 208.618C212.398 211.142 211.754 213.915 211.754 216.726C211.754 219.537 212.398 222.311 213.636 224.834C214.903 227.276 216.856 229.292 219.254 230.635C221.736 232.06 224.754 232.783 228.226 232.783C231.326 232.86 234.391 232.11 237.106 230.61C239.509 229.249 241.474 227.229 242.769 224.788C244.062 222.308 244.724 219.546 244.696 216.749C244.731 213.926 244.085 211.137 242.813 208.619C241.544 206.174 239.592 204.152 237.196 202.798C234.715 201.357 231.697 200.626 228.226 200.626ZM228.228 231.836C225.602 231.91 223.012 231.207 220.782 229.816C218.739 228.479 217.121 226.586 216.118 224.358C215.074 221.95 214.535 219.352 214.535 216.727C214.535 214.101 215.074 211.503 216.118 209.095C217.124 206.864 218.742 204.964 220.783 203.615C223.036 202.277 225.607 201.572 228.227 201.571C230.846 201.571 233.418 202.277 235.671 203.614C237.712 204.965 239.33 206.865 240.341 209.095V209.095C241.384 211.504 241.922 214.102 241.921 216.727C241.921 219.352 241.383 221.95 240.339 224.358C239.333 226.585 237.713 228.478 235.67 229.815C233.442 231.207 230.853 231.91 228.228 231.836ZM228.229 202.125C225.708 202.053 223.222 202.732 221.088 204.077C219.133 205.369 217.584 207.189 216.621 209.327C215.61 211.663 215.088 214.181 215.088 216.727C215.088 219.272 215.609 221.791 216.62 224.127C217.58 226.259 219.129 228.073 221.085 229.352C223.253 230.617 225.717 231.283 228.226 231.283C230.735 231.283 233.199 230.616 235.367 229.352C237.323 228.071 238.874 226.259 239.837 224.127C240.847 221.791 241.368 219.272 241.368 216.727C241.369 214.182 240.848 211.663 239.838 209.327C238.871 207.19 237.32 205.37 235.366 204.076C233.233 202.731 230.748 202.052 228.229 202.125Z" fill="#020202"/>
<path d="M278.829 220.416C278.829 225.171 276.815 229.067 273.444 230.84C271.562 231.828 269.185 232.329 266.375 232.329C266.248 232.329 266.12 232.327 265.991 232.326C263.087 232.28 260.694 231.724 258.678 230.625C256.637 229.56 255.02 227.829 254.096 225.719C253.534 224.221 253.283 222.623 253.359 221.025V201.09H256.426V208.015C256.426 208.015 256.452 215.674 256.452 217.119V221.284C256.405 222.262 256.49 223.241 256.705 224.196C257.005 225.241 257.517 226.214 258.209 227.053C258.901 227.892 259.758 228.58 260.726 229.074C262.655 230.113 265.081 230.557 267.932 230.388C270.64 230.229 272.72 229.497 274.115 228.213C275.63 226.755 276.59 224.815 276.829 222.725C276.939 221.721 276.979 220.711 276.948 219.702L276.941 218.568V201.09H278.825L278.829 220.416Z" fill="#020202"/>
<path d="M266.375 232.606L265.99 232.602C263.037 232.557 260.603 231.989 258.546 230.868C256.45 229.774 254.79 227.995 253.842 225.827C253.264 224.295 253.005 222.661 253.082 221.025V200.813H256.703V208.015C256.703 208.014 256.728 215.675 256.728 217.119V221.284C256.683 222.238 256.765 223.192 256.972 224.124C257.263 225.133 257.758 226.071 258.426 226.881C259.094 227.691 259.922 228.354 260.857 228.83C262.742 229.845 265.115 230.277 267.916 230.112C270.559 229.956 272.582 229.248 273.928 228.009C275.395 226.595 276.324 224.714 276.555 222.688C276.663 221.701 276.702 220.708 276.672 219.716L276.664 218.569V200.813H279.101L279.105 220.416C279.105 225.275 277.037 229.264 273.572 231.085C271.65 232.094 269.229 232.606 266.375 232.606ZM253.635 201.367V221.025C253.56 222.586 253.804 224.147 254.351 225.611C255.251 227.663 256.824 229.347 258.81 230.382C260.787 231.459 263.137 232.004 265.996 232.049L266.375 232.052C269.138 232.052 271.474 231.562 273.315 230.595C276.594 228.871 278.552 225.066 278.552 220.416L278.548 201.367H277.217L277.225 219.7C277.256 220.722 277.215 221.746 277.103 222.762C276.855 224.916 275.865 226.915 274.302 228.417C272.86 229.744 270.723 230.501 267.948 230.665C265.045 230.838 262.571 230.382 260.595 229.318C259.593 228.806 258.707 228.094 257.992 227.225C257.277 226.357 256.748 225.35 256.438 224.268C256.216 223.291 256.128 222.289 256.175 221.288V217.119C256.175 215.675 256.15 208.016 256.15 208.016V201.367H253.635Z" fill="#020202"/>
<path d="M317.133 229.204L316.526 229.965C315.836 230.724 314.992 231.327 314.051 231.733C313.109 232.139 312.092 232.338 311.067 232.318C305.346 232.318 299.56 226.419 294.911 221.68C293.554 220.296 292.264 218.981 291.107 217.949V232.318H288.04V201.086H302.336C304.179 201.075 305.994 201.55 307.596 202.464C309.176 203.355 310.493 204.648 311.414 206.212C312.331 207.773 312.814 209.552 312.814 211.363C312.814 213.174 312.331 214.953 311.414 216.514C310.494 218.079 309.177 219.372 307.596 220.263C305.994 221.177 304.179 221.652 302.336 221.64L298.41 221.713C299.368 222.6 300.27 223.423 300.979 224.022L301.64 224.583C305.042 227.477 308.255 230.211 312.873 230.28C314.022 230.215 315.154 229.973 316.229 229.564L317.133 229.204ZM300.234 203.038H291.104L291.109 215.139C292.892 216.637 294.677 218.264 296.202 219.67L299.781 219.653C300.513 219.655 301.245 219.602 301.969 219.496C303.052 219.345 304.103 219.021 305.084 218.537C306.444 217.881 307.586 216.848 308.377 215.56C309.078 214.364 309.458 213.006 309.481 211.62L309.489 211.385L309.481 211.109C309.458 209.722 309.078 208.365 308.377 207.169C307.587 205.881 306.444 204.847 305.084 204.191C304.103 203.709 303.052 203.385 301.969 203.233C301.73 203.188 301.494 203.15 301.257 203.12L301.256 203.129C301.137 203.111 301.016 203.096 300.895 203.082C300.677 203.061 300.457 203.045 300.234 203.037L300.234 203.038Z" fill="#020202"/>
<path d="M311.067 232.594C305.229 232.594 299.399 226.65 294.714 221.874C293.537 220.673 292.416 219.53 291.384 218.574V232.594H287.763V200.81H302.335C304.227 200.798 306.089 201.286 307.733 202.223C309.355 203.138 310.707 204.465 311.652 206.071C312.594 207.675 313.091 209.502 313.091 211.363C313.091 213.224 312.594 215.051 311.653 216.655C310.708 218.261 309.355 219.589 307.733 220.504C306.089 221.442 304.227 221.929 302.335 221.917L299.104 221.977C299.814 222.63 300.558 223.303 301.157 223.81L301.819 224.372C305.182 227.233 308.359 229.935 312.877 230.003H312.884C313.993 229.937 315.086 229.703 316.124 229.307L318 228.562L316.742 230.138C316.025 230.928 315.148 231.555 314.169 231.979C313.19 232.403 312.133 232.612 311.067 232.594ZM290.831 217.331L291.291 217.742C292.462 218.786 293.747 220.098 295.109 221.486C299.721 226.189 305.461 232.041 311.067 232.041C312.038 232.058 313.002 231.872 313.898 231.494C314.793 231.116 315.599 230.555 316.264 229.846C315.179 230.255 314.038 230.495 312.88 230.556H312.873C308.152 230.486 304.902 227.722 301.462 224.795L300.8 224.232C300.048 223.597 299.074 222.705 298.222 221.917L297.717 221.449L302.33 221.363C304.128 221.375 305.897 220.913 307.459 220.022C308.998 219.155 310.28 217.896 311.177 216.373C312.068 214.854 312.538 213.124 312.538 211.363C312.538 209.601 312.068 207.871 311.176 206.352C310.28 204.83 308.998 203.572 307.46 202.704C305.899 201.814 304.132 201.352 302.335 201.363H288.316V232.041H290.831V217.331ZM296.094 219.947L296.014 219.873C294.502 218.478 292.715 216.85 290.931 215.351L290.832 215.269L290.827 202.761H300.243C300.471 202.769 300.697 202.785 300.921 202.806C300.979 202.813 301.036 202.82 301.09 202.827L301.292 202.845C301.535 202.876 301.776 202.915 302.021 202.961C303.129 203.118 304.205 203.449 305.208 203.944C306.616 204.624 307.798 205.694 308.615 207.028C309.34 208.265 309.733 209.667 309.758 211.1L309.765 211.378L309.757 211.629C309.733 213.062 309.34 214.466 308.615 215.702C307.798 217.035 306.616 218.104 305.209 218.784C304.202 219.281 303.122 219.614 302.01 219.769C301.272 219.878 300.527 219.932 299.781 219.929L296.094 219.947ZM291.385 215.01C293.114 216.466 294.837 218.035 296.309 219.393L299.78 219.376C300.499 219.378 301.217 219.327 301.928 219.222C302.982 219.075 304.005 218.761 304.959 218.29C306.272 217.657 307.376 216.661 308.139 215.419C308.816 214.263 309.183 212.951 309.205 211.611L309.212 211.376L309.205 211.116C309.182 209.777 308.816 208.467 308.139 207.311C307.376 206.068 306.272 205.071 304.959 204.438C304.004 203.969 302.981 203.654 301.928 203.507C301.772 203.477 301.621 203.452 301.473 203.429L301.472 203.433L301.214 203.402C301.1 203.385 300.982 203.371 300.865 203.357C300.66 203.337 300.448 203.322 300.234 203.314V203.315H291.38L291.385 215.01Z" fill="#020202"/>
<path d="M137.992 248.782C137.992 249.755 137.654 250.699 137.037 251.451C136.42 252.203 135.561 252.718 134.608 252.907C133.654 253.097 132.664 252.95 131.806 252.491C130.949 252.032 130.277 251.289 129.905 250.39C129.533 249.49 129.484 248.49 129.767 247.558C130.049 246.627 130.645 245.822 131.454 245.282C132.262 244.741 133.233 244.497 134.201 244.593C135.168 244.688 136.073 245.117 136.761 245.805C137.158 246.191 137.472 246.654 137.684 247.166C137.896 247.678 138.001 248.228 137.992 248.782ZM137.385 248.782C137.385 247.95 137.098 247.144 136.571 246.501C136.044 245.857 135.311 245.417 134.496 245.254C133.681 245.091 132.835 245.216 132.102 245.608C131.369 246 130.795 246.634 130.476 247.402C130.158 248.17 130.115 249.025 130.356 249.821C130.597 250.618 131.106 251.305 131.796 251.768C132.487 252.23 133.317 252.439 134.143 252.358C134.97 252.277 135.744 251.911 136.332 251.323C136.671 250.994 136.94 250.599 137.121 250.162C137.303 249.725 137.392 249.255 137.385 248.782Z" fill="#020202"/>
<path d="M150.264 252.696C150.264 252.893 150.16 252.991 149.952 252.991H141.195C140.981 252.991 140.874 252.893 140.874 252.696C140.881 252.622 140.905 252.551 140.944 252.488L145.279 244.781C145.303 244.721 145.344 244.67 145.396 244.633C145.448 244.596 145.51 244.575 145.574 244.573C145.636 244.577 145.696 244.598 145.747 244.635C145.798 244.672 145.837 244.722 145.86 244.781L150.195 252.488C150.234 252.551 150.257 252.622 150.264 252.696ZM149.425 252.375L145.565 245.494L141.704 252.375H149.425Z" fill="#020202"/>
<path d="M161.036 250.726C161.035 250.783 161.02 250.84 160.993 250.891C160.621 251.528 160.09 252.057 159.451 252.425C158.812 252.793 158.089 252.989 157.352 252.991C156.236 252.991 155.167 252.548 154.378 251.758C153.59 250.969 153.147 249.898 153.147 248.782C153.147 247.666 153.59 246.595 154.378 245.806C155.167 245.016 156.236 244.573 157.352 244.573C157.831 244.577 158.305 244.662 158.756 244.824C159.255 245.017 159.723 245.283 160.143 245.614C160.733 246.065 161.028 246.473 161.028 246.838C161.03 246.889 161.018 246.941 160.992 246.986C160.966 247.03 160.927 247.067 160.88 247.09L154.395 250.839C154.707 251.283 155.115 251.651 155.588 251.916C156.062 252.181 156.589 252.335 157.13 252.368C157.672 252.401 158.213 252.312 158.715 252.107C159.218 251.901 159.667 251.586 160.031 251.183C160.129 251.05 160.273 250.849 160.464 250.578C160.493 250.534 160.531 250.498 160.576 250.473C160.622 250.447 160.672 250.433 160.724 250.431C160.932 250.431 161.036 250.529 161.036 250.726ZM160.305 246.72C159.984 246.234 159.544 245.838 159.027 245.57C158.509 245.302 157.932 245.171 157.35 245.188C156.878 245.188 156.411 245.28 155.975 245.461C155.539 245.641 155.142 245.906 154.808 246.239C154.474 246.573 154.209 246.969 154.028 247.406C153.847 247.842 153.754 248.31 153.753 248.782C153.752 249.311 153.867 249.834 154.089 250.314L160.305 246.72Z" fill="#020202"/>
<path d="M170.265 250.518C170.27 250.861 170.197 251.202 170.052 251.513C169.906 251.824 169.691 252.098 169.424 252.314C168.895 252.763 168.22 253.004 167.526 252.991H165.089C165.048 252.997 165.006 252.993 164.967 252.98C164.927 252.967 164.891 252.945 164.862 252.915C164.832 252.886 164.81 252.85 164.797 252.81C164.784 252.771 164.78 252.729 164.786 252.687V244.876C164.78 244.835 164.784 244.793 164.797 244.754C164.81 244.714 164.832 244.678 164.862 244.649C164.891 244.619 164.927 244.597 164.967 244.584C165.006 244.57 165.048 244.567 165.089 244.573H167.526C168.097 244.564 168.652 244.765 169.086 245.137C169.329 245.338 169.518 245.596 169.637 245.888C169.756 246.18 169.802 246.497 169.77 246.81C169.738 247.124 169.63 247.425 169.455 247.687C169.28 247.949 169.043 248.164 168.766 248.313C169.214 248.478 169.6 248.779 169.869 249.175C170.138 249.57 170.276 250.039 170.265 250.518ZM169.173 246.616C169.174 246.415 169.128 246.215 169.038 246.035C168.947 245.854 168.815 245.697 168.653 245.578C168.334 245.32 167.935 245.182 167.526 245.188H165.393V248.044H167.526C167.935 248.05 168.334 247.912 168.653 247.655C168.815 247.535 168.947 247.379 169.038 247.198C169.128 247.018 169.174 246.818 169.173 246.616H169.173ZM169.659 250.518C169.66 250.256 169.6 249.999 169.485 249.765C169.369 249.531 169.2 249.327 168.991 249.17C168.578 248.833 168.059 248.653 167.526 248.66H165.393V252.375H167.526C168.057 252.383 168.575 252.206 168.991 251.874C169.2 251.716 169.37 251.511 169.486 251.275C169.602 251.04 169.661 250.78 169.659 250.518Z" fill="#020202"/>
<path d="M178.966 252.687C178.966 252.768 178.934 252.845 178.877 252.902C178.82 252.959 178.743 252.991 178.662 252.991C178.582 252.991 178.505 252.959 178.448 252.902C178.391 252.845 178.359 252.768 178.359 252.687V251.863C177.987 252.341 177.476 252.691 176.896 252.865C176.316 253.038 175.697 253.026 175.124 252.83C174.552 252.634 174.054 252.265 173.702 251.772C173.349 251.28 173.158 250.69 173.157 250.084C173.157 249.477 173.346 248.886 173.699 248.393C174.051 247.899 174.549 247.528 175.122 247.332C175.696 247.136 176.316 247.124 176.896 247.299C177.477 247.473 177.988 247.825 178.359 248.305V247.482C178.355 246.874 178.111 246.292 177.681 245.862C177.251 245.433 176.669 245.191 176.061 245.188C175.622 245.197 175.194 245.33 174.826 245.571C174.413 245.825 174.212 245.953 174.223 245.952C174.181 245.959 174.138 245.955 174.097 245.941C174.056 245.927 174.019 245.905 173.989 245.874C173.959 245.844 173.936 245.807 173.923 245.766C173.909 245.726 173.905 245.682 173.911 245.64C173.914 245.558 173.948 245.48 174.006 245.423C174.267 245.141 174.586 244.919 174.941 244.772C175.295 244.626 175.678 244.557 176.061 244.573C176.831 244.576 177.568 244.883 178.112 245.427C178.656 245.972 178.963 246.71 178.966 247.48L178.966 252.687ZM178.359 250.084C178.362 249.55 178.181 249.031 177.845 248.616C177.509 248.201 177.039 247.915 176.516 247.808C175.993 247.701 175.449 247.779 174.978 248.029C174.506 248.278 174.135 248.684 173.929 249.177C173.723 249.67 173.694 250.219 173.847 250.731C174.001 251.243 174.327 251.685 174.77 251.983C175.213 252.281 175.745 252.416 176.277 252.364C176.808 252.313 177.305 252.078 177.683 251.701C177.9 251.492 178.072 251.241 178.188 250.963C178.305 250.685 178.363 250.385 178.359 250.084Z" fill="#020202"/>
<path d="M190.163 250.726C190.162 250.783 190.147 250.84 190.12 250.891C189.748 251.528 189.216 252.057 188.578 252.425C187.939 252.793 187.215 252.989 186.478 252.991C185.363 252.991 184.294 252.548 183.505 251.758C182.716 250.969 182.273 249.898 182.273 248.782C182.273 247.666 182.716 246.595 183.505 245.806C184.294 245.016 185.363 244.573 186.478 244.573C186.957 244.577 187.432 244.662 187.883 244.824C188.382 245.017 188.85 245.283 189.27 245.614C189.86 246.065 190.154 246.473 190.154 246.838C190.157 246.889 190.145 246.941 190.119 246.986C190.092 247.03 190.054 247.067 190.007 247.09L183.522 250.839C183.834 251.283 184.242 251.651 184.715 251.916C185.189 252.181 185.716 252.335 186.257 252.368C186.798 252.401 187.34 252.312 187.842 252.107C188.344 251.901 188.794 251.586 189.157 251.183C189.256 251.05 189.4 250.849 189.591 250.578C189.619 250.534 189.658 250.498 189.703 250.473C189.748 250.447 189.799 250.433 189.851 250.431C190.059 250.431 190.163 250.529 190.163 250.726ZM189.432 246.72C189.111 246.234 188.671 245.838 188.153 245.57C187.636 245.302 187.059 245.171 186.477 245.188C186.005 245.188 185.538 245.28 185.101 245.461C184.665 245.641 184.269 245.906 183.935 246.239C183.601 246.573 183.336 246.969 183.155 247.406C182.974 247.842 182.881 248.31 182.88 248.782C182.879 249.311 182.993 249.834 183.216 250.314L189.432 246.72Z" fill="#020202"/>
<path d="M203.407 252.696C203.407 252.893 203.302 252.991 203.093 252.991C203.025 252.995 202.957 252.973 202.904 252.93C202.851 252.887 202.816 252.825 202.806 252.758L201.064 245.765L198.525 251.03C198.505 251.093 198.466 251.149 198.413 251.189C198.361 251.23 198.297 251.253 198.23 251.256C198.163 251.252 198.098 251.229 198.044 251.189C197.99 251.149 197.95 251.093 197.927 251.03L195.397 245.765L193.647 252.758C193.638 252.826 193.603 252.889 193.55 252.932C193.496 252.976 193.428 252.997 193.359 252.991C193.15 252.991 193.046 252.893 193.046 252.696C193.046 252.673 193.696 250.061 194.996 244.859C195.043 244.668 195.143 244.572 195.299 244.573C195.364 244.575 195.427 244.597 195.479 244.636C195.532 244.675 195.571 244.729 195.592 244.791L198.227 250.252L200.86 244.791C200.88 244.73 200.918 244.676 200.968 244.637C201.019 244.598 201.081 244.576 201.145 244.573C201.306 244.573 201.412 244.668 201.464 244.859C202.759 250.061 203.407 252.673 203.407 252.696Z" fill="#020202"/>
<path d="M219.532 246.013C219.538 246.055 219.535 246.099 219.521 246.139C219.507 246.18 219.485 246.217 219.454 246.248C219.424 246.278 219.387 246.301 219.346 246.314C219.306 246.328 219.263 246.332 219.22 246.326C218.949 246.114 218.662 245.924 218.362 245.757C217.796 245.39 217.137 245.193 216.463 245.188C215.991 245.187 215.523 245.28 215.087 245.46C214.651 245.64 214.254 245.905 213.92 246.238C213.586 246.572 213.321 246.969 213.14 247.405C212.959 247.841 212.866 248.309 212.866 248.782C212.866 249.254 212.959 249.722 213.14 250.158C213.321 250.595 213.586 250.991 213.92 251.325C214.254 251.659 214.651 251.923 215.087 252.104C215.523 252.284 215.991 252.376 216.463 252.375C217.137 252.371 217.796 252.173 218.362 251.807C218.662 251.644 218.947 251.454 219.211 251.238C219.254 251.232 219.297 251.236 219.338 251.25C219.378 251.263 219.415 251.286 219.446 251.316C219.476 251.346 219.499 251.383 219.512 251.424C219.526 251.465 219.53 251.508 219.524 251.55C219.521 251.632 219.487 251.71 219.428 251.768C219.051 252.173 218.59 252.491 218.079 252.702C217.567 252.914 217.016 253.012 216.463 252.991C215.348 252.991 214.278 252.548 213.49 251.758C212.701 250.969 212.258 249.898 212.258 248.782C212.258 247.666 212.701 246.595 213.49 245.805C214.278 245.016 215.348 244.573 216.463 244.573C217.018 244.553 217.571 244.652 218.084 244.865C218.597 245.078 219.058 245.398 219.437 245.805C219.494 245.86 219.528 245.934 219.532 246.013Z" fill="#020202"/>
<path d="M237.783 252.696C237.783 252.893 237.675 252.991 237.461 252.991C237.409 252.992 237.357 252.978 237.312 252.95C237.268 252.923 237.232 252.883 237.209 252.836L233.083 245.496L228.958 252.836C228.935 252.883 228.899 252.923 228.855 252.95C228.81 252.978 228.758 252.992 228.706 252.991C228.491 252.991 228.384 252.893 228.384 252.696C228.385 252.641 228.4 252.587 228.428 252.54L232.789 244.781C232.81 244.72 232.85 244.667 232.903 244.63C232.956 244.593 233.019 244.573 233.083 244.573C233.148 244.573 233.211 244.593 233.264 244.63C233.317 244.667 233.357 244.72 233.378 244.781L237.739 252.54C237.767 252.587 237.782 252.641 237.783 252.696Z" fill="#020202"/>
<path d="M252.977 248.782C252.994 249.342 252.896 249.9 252.687 250.42C252.478 250.94 252.163 251.41 251.763 251.802C250.954 252.549 249.899 252.971 248.798 252.991C247.698 253.01 246.629 252.624 245.794 251.907C245.001 251.176 244.526 250.163 244.472 249.086H242.139V252.687C242.139 252.768 242.107 252.845 242.05 252.902C241.994 252.959 241.916 252.991 241.836 252.991C241.755 252.991 241.678 252.959 241.621 252.902C241.565 252.845 241.533 252.768 241.533 252.687V244.876C241.532 244.796 241.564 244.719 241.621 244.662C241.678 244.604 241.755 244.572 241.835 244.572C241.916 244.572 241.993 244.604 242.05 244.661C242.107 244.718 242.139 244.795 242.139 244.875V248.469H244.472C244.528 247.396 245.003 246.387 245.794 245.659C246.628 244.941 247.697 244.554 248.798 244.573C249.898 244.592 250.954 245.015 251.763 245.762C252.163 246.153 252.478 246.624 252.687 247.144C252.896 247.664 252.994 248.222 252.977 248.782ZM252.37 248.782C252.385 248.304 252.301 247.827 252.123 247.383C251.945 246.939 251.676 246.536 251.334 246.202C250.618 245.55 249.685 245.188 248.718 245.188C247.75 245.188 246.817 245.55 246.101 246.202C245.434 246.895 245.061 247.82 245.061 248.782C245.061 249.744 245.434 250.669 246.101 251.362C246.817 252.014 247.75 252.375 248.718 252.375C249.685 252.375 250.618 252.014 251.334 251.362C251.676 251.028 251.945 250.625 252.123 250.181C252.301 249.737 252.385 249.26 252.37 248.782Z" fill="#020202"/>
<path d="M264.27 240.975C264.276 241.016 264.272 241.059 264.259 241.099C264.246 241.139 264.224 241.175 264.195 241.205C264.165 241.235 264.129 241.257 264.09 241.271C264.05 241.284 264.008 241.289 263.966 241.283C262.499 241.283 261.064 241.714 259.838 242.522C258.613 243.331 257.652 244.481 257.073 245.831C257.757 245.139 258.66 244.707 259.627 244.607C260.594 244.507 261.565 244.747 262.376 245.284C263.186 245.822 263.784 246.625 264.069 247.555C264.354 248.486 264.307 249.486 263.937 250.386C263.567 251.286 262.896 252.029 262.04 252.489C261.183 252.949 260.193 253.097 259.24 252.907C258.286 252.718 257.428 252.203 256.812 251.451C256.195 250.698 255.859 249.755 255.859 248.782C255.861 246.63 256.715 244.567 258.235 243.045C259.755 241.523 261.816 240.668 263.966 240.667C264.008 240.661 264.05 240.665 264.09 240.679C264.129 240.692 264.165 240.715 264.195 240.745C264.224 240.775 264.246 240.811 264.259 240.851C264.272 240.891 264.276 240.933 264.27 240.975ZM263.662 248.782C263.663 247.95 263.375 247.144 262.849 246.501C262.322 245.857 261.589 245.417 260.774 245.254C259.959 245.091 259.113 245.216 258.38 245.608C257.647 246 257.072 246.634 256.754 247.402C256.435 248.17 256.393 249.025 256.634 249.821C256.874 250.618 257.384 251.305 258.074 251.768C258.765 252.23 259.594 252.439 260.421 252.358C261.248 252.277 262.021 251.911 262.609 251.323C262.949 250.994 263.218 250.599 263.399 250.162C263.58 249.725 263.67 249.255 263.662 248.782Z" fill="#020202"/>
<path d="M275.562 248.782C275.562 249.755 275.224 250.699 274.607 251.451C273.99 252.203 273.132 252.718 272.178 252.907C271.224 253.097 270.234 252.95 269.377 252.491C268.519 252.032 267.847 251.289 267.476 250.39C267.104 249.49 267.055 248.49 267.337 247.558C267.619 246.627 268.216 245.822 269.024 245.282C269.833 244.741 270.803 244.497 271.771 244.593C272.739 244.688 273.643 245.117 274.331 245.805C274.729 246.191 275.043 246.654 275.255 247.166C275.466 247.678 275.571 248.228 275.562 248.782ZM274.955 248.782C274.956 247.95 274.668 247.144 274.141 246.501C273.615 245.857 272.881 245.417 272.067 245.254C271.252 245.091 270.406 245.216 269.673 245.608C268.94 246 268.365 246.634 268.047 247.402C267.728 248.17 267.686 249.025 267.926 249.821C268.167 250.618 268.676 251.305 269.367 251.768C270.057 252.23 270.887 252.439 271.714 252.358C272.541 252.277 273.314 251.911 273.902 251.323C274.242 250.994 274.511 250.599 274.692 250.162C274.873 249.725 274.963 249.255 274.955 248.782Z" fill="#020202"/>
<path d="M284.791 250.518C284.796 250.861 284.723 251.202 284.577 251.513C284.432 251.824 284.217 252.098 283.95 252.314C283.42 252.763 282.745 253.004 282.051 252.991H279.615C279.574 252.997 279.532 252.993 279.492 252.98C279.453 252.967 279.417 252.945 279.388 252.915C279.358 252.886 279.336 252.85 279.323 252.81C279.31 252.771 279.306 252.729 279.312 252.687V244.876C279.306 244.835 279.31 244.793 279.323 244.754C279.336 244.714 279.358 244.678 279.388 244.649C279.417 244.619 279.453 244.597 279.492 244.584C279.532 244.57 279.574 244.567 279.615 244.573H282.051C282.623 244.564 283.178 244.765 283.612 245.137C283.854 245.338 284.043 245.596 284.163 245.888C284.282 246.18 284.328 246.497 284.296 246.81C284.264 247.124 284.156 247.425 283.981 247.687C283.806 247.949 283.569 248.164 283.291 248.313C283.74 248.478 284.125 248.779 284.394 249.175C284.663 249.57 284.802 250.039 284.791 250.518ZM283.699 246.616C283.7 246.415 283.654 246.215 283.563 246.035C283.473 245.854 283.341 245.697 283.179 245.578C282.86 245.32 282.461 245.182 282.051 245.188H279.919V248.044H282.051C282.461 248.05 282.86 247.912 283.179 247.655C283.341 247.535 283.473 247.379 283.563 247.198C283.654 247.018 283.7 246.818 283.699 246.616ZM284.184 250.518C284.186 250.256 284.126 249.999 284.01 249.765C283.894 249.531 283.725 249.327 283.517 249.17C283.103 248.833 282.585 248.653 282.051 248.66H279.919V252.375H282.051C282.583 252.383 283.101 252.206 283.517 251.874C283.726 251.716 283.896 251.511 284.011 251.275C284.127 251.04 284.187 250.78 284.184 250.518Z" fill="#020202"/>
<path d="M294.02 250.518C294.025 250.861 293.952 251.202 293.807 251.513C293.661 251.824 293.446 252.098 293.179 252.314C292.652 252.768 291.976 253.012 291.281 253L288.844 252.991C288.803 252.997 288.761 252.993 288.722 252.98C288.682 252.967 288.646 252.945 288.617 252.915C288.587 252.886 288.565 252.85 288.552 252.81C288.539 252.771 288.535 252.729 288.541 252.687V244.876C288.541 244.836 288.549 244.797 288.564 244.76C288.579 244.723 288.601 244.689 288.63 244.661C288.658 244.633 288.691 244.61 288.728 244.595C288.765 244.579 288.805 244.572 288.844 244.572C288.884 244.572 288.924 244.579 288.961 244.595C288.998 244.61 289.031 244.633 289.059 244.661C289.088 244.689 289.11 244.723 289.125 244.76C289.14 244.797 289.148 244.836 289.148 244.876V248.044H291.281C291.976 248.032 292.652 248.276 293.179 248.73C293.446 248.945 293.66 249.217 293.805 249.527C293.951 249.837 294.025 250.175 294.02 250.518ZM293.414 250.518C293.415 250.256 293.355 249.999 293.24 249.765C293.124 249.531 292.955 249.327 292.746 249.17C292.333 248.833 291.814 248.653 291.281 248.66H289.148V252.384H291.281C291.814 252.393 292.333 252.213 292.746 251.874C292.956 251.717 293.126 251.512 293.242 251.276C293.358 251.04 293.417 250.78 293.414 250.518Z" fill="#020202"/>
<path d="M309.215 248.782C309.232 249.342 309.133 249.9 308.925 250.42C308.716 250.94 308.401 251.41 308.001 251.802C307.191 252.549 306.136 252.971 305.036 252.991C303.936 253.01 302.866 252.624 302.031 251.907C301.239 251.176 300.764 250.163 300.709 249.086H298.377V252.687C298.377 252.727 298.369 252.767 298.354 252.804C298.339 252.841 298.316 252.874 298.288 252.902C298.26 252.93 298.227 252.953 298.19 252.968C298.153 252.983 298.114 252.991 298.074 252.991C298.034 252.991 297.994 252.983 297.958 252.968C297.921 252.953 297.887 252.93 297.859 252.902C297.831 252.874 297.809 252.841 297.793 252.804C297.778 252.767 297.77 252.727 297.77 252.687V244.876C297.77 244.796 297.802 244.719 297.859 244.662C297.916 244.604 297.993 244.572 298.073 244.572C298.154 244.572 298.231 244.604 298.288 244.661C298.345 244.718 298.377 244.795 298.377 244.875V248.469H300.709C300.766 247.396 301.241 246.387 302.031 245.659C302.866 244.941 303.935 244.554 305.036 244.573C306.136 244.592 307.191 245.015 308.001 245.762C308.401 246.153 308.716 246.624 308.925 247.144C309.133 247.664 309.232 248.222 309.215 248.782ZM308.608 248.782C308.623 248.304 308.539 247.827 308.361 247.383C308.182 246.939 307.914 246.536 307.572 246.202C306.856 245.55 305.923 245.188 304.955 245.188C303.988 245.188 303.055 245.55 302.339 246.202C301.672 246.895 301.299 247.82 301.299 248.782C301.299 249.744 301.672 250.669 302.339 251.362C303.055 252.014 303.988 252.375 304.955 252.375C305.923 252.375 306.856 252.014 307.572 251.362C307.914 251.028 308.182 250.625 308.361 250.181C308.539 249.737 308.623 249.26 308.608 248.782H308.608Z" fill="#020202"/>
</svg>
